<svg id="Layer_1" data-name="Layer 1" xmlns="http://www.w3.org/2000/svg" xmlns:xlink="http://www.w3.org/1999/xlink" viewBox="0 0 1500 1000"><defs><style>.cls-1{fill:none;}.cls-2{fill:#fff;}.cls-3{fill:#7c7c7c;}.cls-4{clip-path:url(#clip-path);}.cls-5{fill:#fadb00;}.cls-6{fill:#d81f26;}.cls-7{fill:#9ba49a;}</style><clipPath id="clip-path"><path class="cls-1" d="M1134,421.82l-3.31-3.16-1.24-1.46-1-2.47-.62-2.78-.15-2.93.23-2.77,1.31-6.32v-2.7l-6.4-15.35-5.24,8.33-6.09,5.47h0l6.09-5.47,5.24-8.33h0l-8-19.35L1114,357l1.23-3.47,2.54-2,2.78-1.62,2.16-2.47.31-3.24-1.24-2.39-3.85-3.93-.85-2.7-.77-7-1.47-1.93-1.23.15-2.08,2.24-1.93-.16-1.31-1.31-5.94-12.33-2.16-12.26-2.85-8.94-1.54-2.47L1095,291l-4-1.92-1.08-1.62h-.85l-.61,1.08-2.55,1.85-.85.31-1.92-.54-1.31-1.31-2.09-3.4-4.47-5-1.46-2.47-4.09-21.35h0l-1.62-2.93-3-2-6.63-1.92-2.93-1.85-1.54-3.24-1.39-17.35-1.85-5.63-3.47-4.47-.3-1.7.38-1.62,1.47-3.46.15-1.32-.54-1.54-1.77-3.08-.08-1.47.77-1.23,4-1.62,2.7-4.16,1.31-5.63.39-11.41-.93-2.93-2.08-1.39-2.62-.77-2.7-1.39-4.55-4.93-2.54-1-3.86,1.08L1035,169l-1.24,2-1.62-.93-2.16-5.7-3.16-4.09-1.54-.54-2.77.77-2.78.16-3.62.77-1.85-.7,1-1.08,2.77-1.85-1.77-2.16-2.24-.84-.23-.77,6.71-3.47,1.54-1.93-.38-1.93-3.09-1.62h-2.77l-5.55,2-2.24.46-3.24-1.23.16-2.47,1.85-3.24,1.46-3.62-.38-2.32-1.62-1.62-2.08-1.38-1.62-1.55-1.16-2.23.08-1.47,1.15-3.31.47-3.32-.54-3.23-1.16-1.62-2.77-3-.24-1.93.24-4.32-1.78-3.31-3.16-2.47-4.09-2-11.41,11.49-27.37,27.52-23.9,24-.69.38,5.24,16.43,9.18,13,3.62,7.25,2.7,7.71,5.7,6.79,3.94,7.94h0l7.32,5.4,7.17,3.54h0L964,225.84l-7.32-5.4h0l-3.94-7.94-5.7-6.79-2.7-7.71-3.62-7.25-9.18-13-5.24-16.43L921,164.39l-6.09.77L889,163.85h0l-9.64-.47-4.31-.84L872.13,161l-17.81-14.64-2.86-1.16-2.46.92-8.56,6.33-11.1,5.62-11.8,3.63-48,3.93L763.26,167l-25.9,15.88-1.7,1.93-.15,1.77.61,5.09v2.16l-.46,2,2.85,3.7.7,2.63,1.46,2.31.77,2.85,5.63,5.63,1.7,4.55,7.24,8.56,5.25,3.77,4.08,2.93L782.69,248l.85,3.16h0l-.85-3.16-17.35-15.27-4.08-2.93h0L756,226.07l-7.24-8.56-1.7-4.55-5.63-5.63-.77-2.85-1.46-2.31-.7-2.63-2.85-3.7L734.58,198l-1.7.08L724,196.23,721.63,195l-2.16-2.24-.93-1.47-.69,20.28-.93,1.78-1.77.92-.23,2.85.31,3h0l-.31-3,.23-2.85,1.77-.92.93-1.78.69-20.28-1.77-2.85-1.62-.85-1.16-.07-1.85,1.15L705,190.75l7.17-2.08,1.85-1.15-11-.7-1.93-1-1-2.39-.46-6.55-.47-2.62-2.08-3.4-10-11.25-3.32-2.86-3.7-1.69-.69.69L668,168.4l-1.31,1.23-2.54,1.08-7.71,1.16-6.94,1-2.47,1.23-1.69,2.08-1.62,1.47-2.62-.54-29.61-16.19L606,159.14l-5.78-.77h-6.63l-3.71,1-9,7.09-1.23.46-2.7.54-1.31.54-4.32,3.47-1.92.85-4.24.15-1.47.54-1.54,1.31-.77,1.54-1.08,3.32L551,192.76l-3.09,6.09-.61,2.24,3-1.16,2.7-2.24,2.31-.77,1.78,3.32.07,1.31-.92,4,.15,1.62,1.47,2.93.23,1.62-.85,3.08-.77,1,3.55,3.78,3.7,3.39-3.7-3.39-3.55-3.78-1.08,1.54-4,4.48-2.85,4.85-.85,2.93-2.85,1-2.55,5L536.59,253l-2.24,6.56-.54,3,.16,2.7,1.69,2.08,6.56,4.63,2.46,2.24,3.24,5.7,1.54,5.55-.23,5.63-3.47,9.56-1,1.39-2.23.62-.93,1.15-.23,2.16-3.78,10.26-.92,2.46-.77,3.47-2.7,4.32-.62,1.39-.15,2.62.54,5.24-.16,2.55-1.08,2.31L530,343.41l-1.23,2.93.38,2.39,2,.62,9.86.15,1.39.77.39,1.7-.08,2.16.39,2.08,1.46,2.31,2.31,2.78,2.62,2.39,2.39,1.08,4-2,2-4.55,2.31-3.85h5.24l1.16-2.93,5.94-.77.85-5.17h0l-.85,5.17-5.94.77-1.16,2.93,2.32,1.54,8,9,.61,1.61-.23.85-1.23,1,.77,1.24,2,1.08,6.17,1.08,1.93.07,2.31-.38,6.86-2.55.23,6.09.47,2.93,1.08,2.47,2.93,2.31,7.94,4.48.31.46,3.47-2.93,1.31-2.08.38-2.93,1.16-2.62,1.54-2.47,5.94-6.71,2.7-1.77,7.4-2.62,1.69-1,1.39-1.61.69-1.7.54-3.7.7-1.39.08-2.08.69-3.16,1.39-2.47h0l-1.39,2.47L636.9,352l-.08,2.08v6.86l-.93,3.32-2.46,1.31-2.55.69-2.85,1.7-4.78,3.47-1.7,1.93-1.15,2.46.23,6.48,1,2.08h0l1.08,1.23,2.08,3.32.77,3.32-2.31,2.39,3.55,8.78.23,4.71L624.25,412l2.55,6.17.38,2.08v3.39l-.92,2.08-.7,5.17-1.93,3.62-3,1.85-4.09-1.15-.69,1.62-.54,1.31-.85,7.32-.93,3.24-1.92,3.55-1.93,2.31-5.78,3.85-8.1,7.64-8.48,4.55-1.77.46-1.85-.23-3.16-.85-1.7,1.08L576.91,470l-1.85,4.24-4,2-4.78,1.31-3.85,2.16-2.55,3.55-4.31,8.33L532,519l-1.46,2.16-.23,4.39-.62,2.54-15.57,16.5.38,1.39-1.85.77h0l1.47.7v.92l-1.85.54-1.85-.08-1.7-.77-1.39-1.54-1.31.93-1,2.31-.85,1.08-.39-1.47.7-4.78-2.55,2.32-1.61,1h-1.16l-.85-1.47.54-1.31,1.7-2.54.31-3.16-.62-1.93L499,535.7l-1.31-2.78.85-2.7-.93-3-.15-2.55,3-1.39v-1l-2-1.08L496.34,519l-2.77,2.47-1.85,1.23-1.93.85-2.7.7-1.85.15-3.24-.31-1.62.16L478,526.14l-1.69,2.77-1.7,1.85-2.47-1.15-1.54-1.16-1.23-.31-2.47,1-4.32,4.48-.38.84-.23,3.09-.85,2.7-1.85,1.61.08,2.78.77,5.71-1,2.62-3.16,3.39-.69,2.24-.46.61-2.47,4.63-1.54,1.85-1.39.77-15,3.39-5.94,2.7-5.09,3.93-1.85,1.08-2.62,5.55-.23,1.47.77,7.25-1.77,11.95-.08,2.93L420.17,618l.38,5.55-2.46,5.4-2.7,3.08h0l-7.48,8.56-1.62,2.7-.92,3-4.55,23.21-.47,1.08-1.38.93-2-1.31-1.69-.62-.77,1.54-6.17,8.71-1.24,3.78-.23,2.47,1.7,6.17.08,2.69-.7,2.63-2.16,5.16.08,2.93,1.77-1.54,3.55-.46,3.16,1.15,2.08,2.39.85,3.16.77,1.31,3.32.08.69.54.31,3,.46.77h0l1.16.62,1.85.23,1.23-.54-4.16-.31,4.16.31,2.62-1.7,3.63-.92,1.77-.08-.92,3.78-1,3.31-1.31,9.1-1.69,5.47-2.32,4.94L405,744.71,403.67,746l3.55.15-3.55-.15-.85.77-4.62,2.16-5,4.24-2.69.92-2.78.39-2.7.85,3-.39.15,8.25-.15-8.25-3,.39L382.78,757l-3.32,4.24-1.16.47,1.24,3.39.46,8.63-.31,1.93-1.08.85-2.85.46-.54,1.54,1.62,3.16-.15,1.08-1.93,2.08L373,795.91l-.15,2.93,1.31,5.47.31,3-.39,8.48-.38,2.08-1.62,1.85-4.16,1.47-1.55,2.46-.15,2.62.62,2.7.15,2.08-1.23,2.55-.47,1.77.39,2.47,2.08,5.4.54,2.77-.08,2.55-1.77,8.71.08,3.39,1.15,2.24,1.47,2.16.77,3.08-.15,1.16-1.31,3.62.07,1.46,1.62,2.86.62,1.62v2.69l-1.31,8.25,5.63.31,3-.23,2.62-.69,2.86-1.62,2.23-1.62,2.32-1.23,3.47-.62,1.61.38,3,1.85,1,.39,1.16-.69.85-2.78,1.31-1.54,2.47-1.16,1.31.16,1.54.77,3.93,5.78.62,2.93.38,5.86,1.39,2.93,2.39,2.31,2.78.77,2.93-.31,3.08-1.15,9.56-5.32,1.47-.31,1.31-3.08,1.85-1.85,4.85-2.7,5.79-2.24,1.54-1.39.69-2.16.85-5.47,1-1.93,1.16-.61,3.24-.62,2.23-1.31,6.25-5.94,1.85-2.39,1.54-2.54.54-2.93.93-1.31-3.71-.16L462,857.66l4.31-1.31,3.71.16,2.85-1.47.85-.69.69-2.16.93-5.86,1.23-2,2.16-.78,2.31.39,2.39.69,2.39.31,2.24-.54,1.85-.85,1.85-.23,2.16.62.3-1.08,2.93-4.55,2.09-5,.38-2.24.93-2.23,1.85-1.7,2.85-4.08,2.24-.85,2.69-3.32,1.78-3.62.15-7.71h0l-.15,7.71-1.78,3.62-2.69,3.32-2.24.85-2.85,4.08-1.85,1.7-.93,2.23-.38,2.24-2.09,5-2.93,4.55-.3,1.08,1.54.46,1.31-1.08,1.77.16,2.55,1.85,1.69-.08,2.62-.62,7.1-.69,3.08.39,3.39,1,1.85-1.47,5-5.32,2-1.08,5.4-1.69,5.32-2.78,4.93,1.24,2.24,1.15h63.76l-4.17-4.47-.54-3.55-1-3.54-2.93-2.93-3.24-2.16-1.92-3,2.54-3.16-2-6.32.54-3.55-1.31-4-2.55-3.39-5.7-5.32-6.71-4,6.71,4,5.7,5.32,2.55,3.39,1.31,4-.54,3.55,2,6.32-2.54,3.16,1.92,3,3.24,2.16,2.93,2.93,1,3.54.53,3.55,4.17,4.47h70.78l.77-2-.24-1.16-2-1-.31-1.23-.54-6.25.39-7.94-1.16-2.47-2.77-.54-3.24.16-2.39-.62-.54-2.08.23-3.55,1-3.39,1.62-1.54.08-1.08,4.08-4.4h0l1.16-1.31,3.32-6.63,1.07-1.08,1.24-.38.31-2-1.62-2.7-.16-1.31,1.16-5.7.54-1.47,4.39-6.09.93-1.93.46-2.08,1.31-3.16,3-2.08,6.32-3,1.85-1.85,4.94-6.32,1-2,1.31-3.55,2.85-3.32,2.93-1.23,1.54,2.78h1.08l-.61-3-1.7-3.62-1.16-1.62-.69-2.24-.23-.69-.39-.16-1.62-.15h-1.08l-.15-.16h0l-1.23-1.77-5.63,1.62-6,3.24-24.06-.39h0l24.06.39,6-3.24,5.63-1.62h0l1.23,1.77-1.23-1.85h0l.77-3.54.08-1.24v-.92l-1.32-1-.77.07-.61.08-4.86,1.7,1.23-5.71.62-2.08-2.85-.93,2.23-1,.62-.31,7.71-5.47,2.47.92,5.55.39,2.62.62-1.23-3.32-5-1.23-1.38-3.24,3,1.08L721.7,699l3.94,1.31,3.85,2.47,5.4,1.39,2.54-.62,1.7-1.54.85-2.16.23-2.54-1.7-3.78L738.2,692l2-3.32-.39,2.16-.69.69,2.08,2.86,1.16.77-.47-5.32.47,5.32,2.54,1.77,3.93,1.08,2.93-1.62.23-2.77-1.69-2.39-4.4-3.55,1-1,4.31,1.92,5.4,1.55,3.93,2.39-.07,4.78h3.85l-1.46-2.86.84-8.17-1.31-4.47,2.93-.85,2.08,1.93,2.86-.69,2.54-2.32L774,677.1l1.62,1.46-.16,1.93-1.15,1.85-1.24,1.46-3,2.32.3.92,2.24,2.08,2,.54,1.55-1.61,1.23-2.09,1.47-1.62.84-2.23,1.08-.31.7.69,1.23,4.17,1.23-.77.85-2.47.85-.54,1.39.46,1,1.24,1.46,3.08,1.78-2.31-3.7-5.86,1-2.39,1.23.85L792.4,679l1.39-.38-2.31-3.55,3.78-1v-.92L794,672.7l-2.54-1.62.54-1.85-1.77-2.08.69-1.31,1.54-.39,2.24.78.54-1.78,2.46-.38,1.47-4,1.16-4.71,1.31-2.08h0l.23-.46,2.46.46h0l.07.16.46,1.39-.46,1.92L802.2,659l.07,2.31,1.16,1.24,2.39-2,1,2L803.58,668l.54,1.7,4.09.61,1.23-1,1.16-1.93,1.08-2.93,1.39.39.85,1.39,1.54,3.16-1.85,1-2.47,3.08-1,.62h-3.32l-2.54,1.08-1.31-.08,1.08,1.85.07,3.09.77.92,2.16.39,1.78-.77,2.31-1.62,3-.62,1.62-.77,1.69-1.47,2.24.85,3.47,2,.38-4.63.54-1.62,1.08-1.62h.93l.69,1.7,3.24-.31,2,.7-.84-2.32-.24-2.54H832l.39,1.08h0l.31.69,1.85-3.08,2.16-.7-1,2h1.93l-1.15,1.39-.7,1.46.16,1.23,1.69.78-3.08,1.46-.85,1.31.69,1.62,2.39,1.54-.07,2.24L838,683l2.7-.15,9.25-3.24L853,678l9.8-7.48,1-1.08,1-1.78,1.93-5.08-4.78-.16-4-.77,3.85-2.47,1.16-.54.31-1.46,2.54,1.23,3.47.7v1l-1.46,2,.54,1.54,1.31-.3,1.85-1.7-.08-2.62,1.7-.54,2.31-1.7-1.54-1.85-.85-3,.46-2.63,2.39-1.15,2.55-.62,4.39-2.62,2.62-.62,1.39-.92,3-2.08.15-1.85-1.62-.62-3.93-.93-3-.15-2.39-1.08-.77-3.16h0l3.32.77,3.54-.62,2-1.85-1.23-3,4.54-2.16,1.32-.85,1.07,6.09,3.94.31,3.77-2.62.93-2.7,1.93-3.09,2.7.93.61.85-2.39,3.24-3.16,5.62,2.24,2.09-2.32,2.15-3.31.31L895.56,640l1.08,4.24,1.54-1.08,5.25-1.92.54,1.31-.08,1.23L902.5,646l2.47-.54,2.54.23,2.39,1,2.24,1.39-.46-2.08-1.47-.93,3.93-1.46,2-.24,1.85.85-2,.85,1.32,1.77,3.7-.69,1.92-1.23,1.24-2.93,1.31-4,3.62-3.47,2.55-4.24-.78-2.47-2.15-1.93-.7-2.85.31-3.08-3.55-3.32h0l-.61-9.56v-7.32L916,595.22l-4.85-4.09.38-5.7L913.6,579l-1.46-8h0l-4.09-1.85-.92-4.47,2.39-9.72-2.24-4.7-2.77-4.39-2-2.62-2.85-1.62-2.54,3.16,2.54-3.16,3.7-3,.23-1.93-.23-2.08,2.16-3.7,2.54-3.55,1.85-4,2.78-3.62,1.16-3.55.38-3.93-2.23-.94,2.23.94,4.24,3.16L922,519l-3.55-3.63-4.24-3.16-.38,3.93-1.16,3.55-2.78,3.62-1.85,4-2.54,3.55-2.16,3.7.23,2.08-.23,1.93-3.7,3,2.85,1.62,2,2.62,2.77,4.39,2.24,4.7-2.39,9.72.92,4.47,4.09,1.85h0l1.46,8-2.08,6.48-.38,5.7,4.85,4.09,8.18,4.55v7.32l.61,9.56,3.55,3.32-.31,3.08.7,2.85,2.15,1.93.78,2.47h0l-2.55,4.24L925.48,638l-1.31,4L922.93,645,921,646.18l-3.7.69.23.39,4.08,1.62-.84,2,2.69.62v2.39l-1.85,1.85-2.7-1,1.86-.85-1.93-.92-2.24-.62-2.16-.16-1.38.62-2.24-.92h-2.54l.77,1.23,1.08.77,2.93.85-1.86,1.08,1.78,1.23,2,.62-3,1.85,1.85,2.31,3.62,2.62,2.39,2.93h.93l-.31-4,.15-2,.69-.85,1.16.62.39,1.46-.16,3.7,1.24-1.08,1.54-2.08,1.15-.61-.69,3.08-1.31,2.7,2.08-.62.85-2.24h1l.23,2.24,1.39.85,1.54-.62.7-2.08,1.23-1.23,2.62-1.16,2.62-1.62,1.24-2.7-1-7.4.08-1.69,1.39-1.39,1.77-.39,1.93.54L946,650l2.54-2.09,2.31-.77,3.78-2.08,5-3.62,4.71-1.93-4.71,1.93-5,3.62-3.78,2.08,2.55.08,2.16.62,1.92,1,.93,1.16-3.16.54-2.55,1.23-1.85,2-1,2.93,1.62-.69,1.7-.08,3.39.77v.93l-1.23,1.08L953.39,661l-1.47,2.55-.15,1.93,1.85,1.15,5.94.31,1.85.46,1.46-1.39-.15-3.23.54-2.24,2,2.31.46,2.86.24,3.16,1.23,3.31.77-1.77.46-3.78.62-2.16,4.32,2.86,4.55,2.08.15-2.62,2.93-1.7.69-2.08,1.7-1.39,4.63-3.85.92-1,1.31-.31,2,2.78,6.32-8.48,5.09-3.93,1.15-1.85.47-2.93-1.62-5.09-.16-2.62.62-1.31,2.47-2.86,1.38-2.69,3.4-13.88,2.54-4.86,4.16-2.85,5.71-2.08,4.63-2.32,3.39-3.62,2.23-6.09.54-3.24-9.4-4-9.25-7.48-1.62-3.93-2.63-2.93-3.23-2.08-3.63-1.54h0l3.63,1.54,3.23,2.08,2.63,2.93,1.62,3.93,4.31-4,1.39-6.17,1.16-3.16,1.77-2.77,5-2.47-.15-2.62.61-2.93,2.32-2.93-2.32,2.93h0l-.61,2.93.15,2.62-5,2.47-1.77,2.77-1.16,3.17-1.39,6.16-4.31,4,9.25,7.48,9.4,4,.31-1.77,1.16-1.24,9.1-4.55,2.39-2.15,2-5.71,4.09-5.32,3.7-9,.77-2.85.08-3.09v-3.24l.77-3,1.15-2.93,1.39-2.47,2.93-2.85-5.16.62-11.65-1.08-4.39,2.69-5.71,1.7-3.39,4.47,3.39-4.47,5.71-1.7,4.39-2.69,11.65,1.08,5.16-.62,2.31.54,2.32,1.31,2.77-.54-.21-.47.21.47,1.7-2.62.23-3.16.93-2.62,6.86-1.55,4.78-4.62,2.93-1.78,11.56-1.23,4.55-2,1.77-5.71-1.46-5.63-2.47-5.78-.31-2.62h0l-.23-2.39,8.41-6.86,2.93-11.41,3.23-4.78,1.47-.78,2.93-.53,1.39-.7,1.46-1.31,1-1.62,4.48-9.48.84-3.09.16-27.44.61-1.7,2.63-3.31.54-1.55Zm-70.31,47.42h0l-9.79,5.16h0Zm-17.66,4.85h0l2.46,1.63Zm-68.15-11.56-5.32-3.47h0Zm-5.56,69.39,6.94-2.85,11-.39h0l-11,.39-6.94,2.85-10.64,4.93-9.79,3.7h0l9.79-3.7Zm11.72,44-2,2.77h0Zm-9.33,20.37-.92,1.06h0ZM961.33,579.8l2,4.86,1.08,4.47,1.39,1.31-1.39-1.31-1.08-4.47-2-4.86-.46-4.94Zm1.77-71.24-4.24.77h0l4.24-.77Zm-9.25-155.28h0l-7.09,7.25-5,.23-3.86,3.93h0l3.86-3.93,5-.23Zm-13.26,68.77,2.77,1.16-2.77-1.16-2.92-.65Zm3.08-74.86-3-4.16h0Zm-9.09-115,5.08.93,4,1.85h0l-4-1.85-5.08-.93Zm-7.41,95.14h0l9.26,12.57h0l-9.26-12.57-8.09.39Zm-7.09,50.81,5-3.47,4.09-4-.46-5.62.15-3.7h0l-.15,3.7.46,5.62-4.09,4-5,3.47-5.63.08L916,380.5l1.8,1.54L916,380.5l-1.54-2.24Zm-3.85,17.66,2-2.31-.92-2.93,1-2.39.69-3.16-.85-2.7h0l.85,2.7-.69,3.16-1,2.39.92,2.93-2,2.31-2.86.85h0Zm-5.56,27.45h0l-.07-5.71h0Zm-6.47-14.42.62,2.93h0l-.62-2.93h0l-.93-4.63.7-5.63,5.63-4.7h0l-5.63,4.7-.7,5.63Zm1.85,5.55h0l-.66-1.39Zm1.08-50.73h0l-2-1.62-1.7-.62,1.7.62Zm-.39-135.62,3.86,5.55h0l-3.86-5.55Zm-5.32,5.24h0l1.24,9.41-1.62.13,1.62-.13Zm-25.59,116,2.08,5.32h0l-2.08-5.32-6.17-2.54h0Zm-4.78,47.11,2.69.54h0l-2.69-.54Zm10.17,104.31-.15-13.26L882.15,472l4.47-6.16.31-5.56.85-6.24h0l-.85,6.24-.31,5.56L882.15,472l-1.08,15.42.15,13.26,11.18,1.93h0l-11.18-1.93L872,499.55Zm7.64-100.61-7-1.31-5.55-2.93h0l5.55,2.93,7,1.31,2.15,2.77,1.93,3.17h0L891,402.85ZM879,355.72l1.75,1.8,6.63,1.62.77,0-.77,0-6.63-1.62Zm11.93-29.12-5.94.54-2.24-.69-2.31-.15,2.31.15,2.24.69,5.94-.54,5.78,1.93Zm-.62-81.41h0l5.63-1.93Zm-12.87-50.43,6.24,7v7.4l7.79.46-7.79-.46v-7.4l-6.24-7Zm-3.71,73.09h0l-3.85-6.63h0Zm-8.32-10.4,3.12,2.63-3.12-2.63L861,251.66h0Zm-15.11-11.57,5,2.73-5-2.73Zm-.93,91.75h0l4.55-1.31,4.09-5,5.7-3.47,6.25-2.62-6.94-9-3.24-4.94,3.7-4.16,18.12-.77,4.55-5,.77-9.49-2.85-4.93-9.1-.46-7.4-1.24-.85-4.93,4.16-3.32,2.85-3.31v-5.79h0l4.94-13.18,3.39-10.87h0l-3.39,10.87-4.94,13.18v5.79L870.89,277l-4.16,3.32.85,4.93,7.4,1.24,9.1.46,2.85,4.93-.77,9.49-4.55,5-18.12.77-3.7,4.16L863,316.2l6.94,9-6.25,2.62-5.7,3.47-4.09,5-.39,3.85-2,4.55L847,347.57l4.55-2.85,2-4.55.39-3.85Zm10.79,37.62-4.54-2.46,4.54,2.46Zm-12.79-39.7h0l-2.86-.31Zm0,27.75-4.94-1.69h0Zm-5.63-108.24h0L838.14,253ZM838.36,213h0l-2.39.54Zm-17.12,32,2.47,1.54h0L821.24,245Zm-1.08,85h0l4.39-3.32,2.24-5,1.85-.07h0l-1.85.07-2.23,5-4.4,3.32,6.71,8.87-1.62,5.78-2.16,7.94-2.93,5.4-2,5.39h0l2-5.39,2.93-5.4,2.16-7.94h0l1.62-5.78Zm-6,16.5,2.08.7-2.08-.7-5.94-.23ZM798.88,557.28h0l-.62-7.17,1.16-8.86,1.7-7.63,4.93-1.24-4.93,1.24-1.7,7.63-1.16,8.86Zm5.55-230.91h0l-12-2.45,12,2.45Zm-15,310.79h0l-.16-1.23.54-1h0l-.54,1Zm-1.78-3.93,1.7,1.33-1.7-1.33-1.23-1.78,1.93-5.78-1.93,5.78ZM760.41,404.55l-.62-3.16-1.15-3.08h0l1.15,3.08h0l.62,3.16.08,2.62-.54,1.7L758,412.65l-.39,1.85.39,1.69h0l-.39-1.69.39-1.85,1.93-3.78.54-1.7ZM759,416.89l2.09.61-2.09-.61-.69-.48Zm-1.23-19.81-.7-1-1-2.24L754.63,384h0l1.46,9.86,1,2.24ZM746,439.55l3-1,.54-1.62.23-1.77.54-1.39,2.39-.92,3.62-1,2.7-1.54-.54-2.85,1-2.16-.07-3.08.3-1.24,2.7-3.08h0l-2.7,3.08-.3,1.24.07,3.08-1,2.16.54,2.85-2.7,1.54-3.62,1-2.39.92-.54,1.39-.23,1.77-.54,1.62-3,1-2.31,1.16h0ZM758.1,611.33l2.69-5.09,2.09-2.23,2.62-1.78,3.31-.61,3.39-.16-3.39.16-3.31.61L762.88,604l-2.09,2.23-2.69,5.09-.62,5.48h0Zm12.41-205.47,6.71-1.39,8.71-13.26,2.47-5.09h0l-2.47,5.09-8.71,13.26-6.71,1.39Zm8.86-80.1,12.19-2h0l-12.19,2L772.9,344,767,345.42h0L772.9,344ZM733,379h0l-3.05-2.4Zm-14-7.55,4.86,2.54,1.31.39-1.31-.39-4.86-2.54ZM720.39,456h0l-6.09.69v5.4l-4.7.69h0l4.7-.69v-5.4Zm-16.11,82.11h0l6.55,11.72.23,2.62-.07,2.93h0l.07-2.93-.23-2.62Zm-2.16,76.63-3.62-1.15,3.62,1.15,0,.16Zm-.69-93.21-5.25-8.94h0l5.25,8.94,2.43,14.14Zm-50-91.28,3.38-2.81-3.38,2.81ZM659.33,374l-1.54-1.31-1.23-.31h0l1.23.31,1.54,1.31,1.16.31,2.43-.36-2.43.36Zm.16,52.12h0l-3.84.66Zm9.79-118,1.62-4.44-1.62,4.44Zm26.06,136.39.84,2.2-.84-2.2-2-3.78Zm-1.55-84.73h0l1.47.77h0Zm-5.85,48.8-3.74-1.27,3.73,1.27,5.4,8.1Zm6.63,84.81,5.7-3.47-5.7,3.47-8.72,9Zm6.86-36.08-4-2,4,2,5.12,1.3Zm3.08-93.22-3.39-2.46-1.54-.77h0l1.54.77,3.39,2.46,3,1.31,5.63,5.09h0l-5.63-5.09ZM717,565.53l-5.09-8.61,5.09,8.61,7.33,5ZM702.66,195.77l.61-2.4-.61,2.4-1.93,2.46ZM683.23,195l1.62-.24-1.62.24-.83.32Zm17.89,70.23.62-2.77.3-2.86,5.17-8.48.23-3,.85-2.7,2.08-1.93,1.7-2.24,1.46-2.54.85-2.62-.69-3.08.3-2.93,2.78-5.09-.39-2.39-.8-1.72.8,1.72.39,2.39L714,230.08l-.3,2.93.69,3.08-.85,2.62-1.46,2.54-1.7,2.24-2.08,1.93-.85,2.7-.23,3L702,259.6l-.3,2.86-.62,2.77L672.9,274,658,276.41l-4.39,6.09-3.55,5.09-1.93,1.31h0l1.93-1.31,3.55-5.09,4.39-6.09L672.9,274Zm-47-42.09,2.08-2.7,4.86-4.86.85-2.62.69-3.62,1-3.09,2.47-1.93,1.62-2.69,1.46-.62-1.46.62L666,204.32l-2.47,1.93-1,3.09-.69,3.62-.85,2.62-4.86,4.86-2.08,2.7L652.85,228Zm-6.48,18.73,1.7-6,.54-3.78.46-1.16-.46,1.16-.54,3.78-1.7,6-3.78,8.1h0ZM642.45,286l-3.63-1,3.63,1Zm-.31-32.38h0l-12.41-1.7Zm-9.95,62.53.77-.77-.77.77-2.39,1.23Zm-45-90,1.15-3.31-1.15,3.31-2.7,2.16ZM566.5,313.19l-1.11-4.59,1.11,4.59,1.85,5.16ZM572.83,240l-3.94,4.32-5.93,4L558,253.82l-15.26-.69,15.26.69,4.94-5.47,5.93-4,3.94-4.32,1-7.25,3.62-6.63h0l-5.78-3.85,5.78,3.85,3,2.93-3-2.93-3.62,6.63Zm13.26,86.81-9.41,1.62,3,9.1-2.08,5.32L575,344.49l2.63-1.62,2.08-5.32-3-9.1h0l-2.52-1.09,2.52,1.09,9.41-1.62,3.16-1.77Zm26.36-15.95-.69,2.08.23,2.93-1.54,2h0l1.54-2-.23-2.93.69-2.08,1.49-1.16Zm3.94-5.71-.7,1.93-.73,1.37.73-1.37.7-1.93,1.15-.51Zm.85-70.62,1.69,3.31,3.32,1-3.32-1Zm7.29,66.53.72-.38-3-5-.54-5.94L623,284l3.62-7.4h0L623,284l-1.31,5.71.54,5.94,3,5Zm12.75,37.24-2.16-6.09-1.69-2.93-2-2.23-1.77-2.62,6.17-1.86,4.47-4.47,6.47-7h0l-6.47,7-4.47,4.47-6.17,1.86,1.77,2.62,2,2.23,1.69,2.93,2.16,6.09,2.47,2.08h0Zm6.63,1.39h0l.54,1.16-.15,1.62-.62,1.38h0l.62-1.38.15-1.62Zm-1,4.86-.33.31h0Zm-22.07,104,8.17,1.32,8.87.69,9.4-4.78,4.09-6.09-4.09,6.09-9.4,4.78-8.87-.69-8.17-1.32Zm6.48,82.27,5.78,8.48L640.9,546l2.47,2.85L640.9,546l-7.78-6.71Zm-1-64.84L623,467l3.31-1,.54-.1Zm-7.09,62.06,4.24,1.16-4.24-1.16-4.32-2.39ZM613.3,713.33l-.46-1.38.62-3.86-.62,3.86ZM600.12,606.09l3.62,3.47,1.93,4.39-.46,2.16-1,2.08.15,1.78h0l-.15-1.78,1-2.08.46-2.16-1.93-4.39-3.62-3.47Zm3.31,14.37-1.08.59-1.69.29,1.69-.29Zm-5.62-15.91h0l-2.63.23h0Zm-3,0L592,603.08l-3.65-.52,3.65.52Zm-5.43,20.88-.91,3.39.91-3.39Zm-3.78,15-.16-5.48h0l.16,5.48,1.31,2.39.85,2.46-.85-2.46Zm1,6.32-.26.31h0ZM581.23,653l3-4.32h0l-3,4.32-3.55,4Zm-78.72-87.12,3.32-3.16h0l12.26,5.47,13.41,3.32,6.25,3.08,6.63,1.31,5.47,4.78,7,9.41,1.77,3.16,2.39,2.16,7.71,1.46,6.32.93-6.32-.93L561,595.45h0l-2.39-2.16-1.77-3.16-7-9.41-5.47-4.78-6.63-1.31-6.25-3.08-13.41-3.32-12.26-5.47-3.32,3.16-2.17,2.71ZM556.17,601l-1.69-2.93h0l1.69,2.93,7,3.62v8.48h0v-8.48Zm1.7,48.73.69,4.16-1.39,2.62h0l1.39-2.62-.69-4.16-1.7-3.63,2.16-2.93.23-5.55-1.62-1.93-3.39-.23h0l.23-6.78h0l-.23,6.78,3.39.23,1.62,1.93-.23,5.55-2.16,2.93Zm.69-21.36v-12.8l1.47-1.93-1.47,1.93v12.8Zm-39.4,67.39,6.87-6.64,4.4-8.39-4.4,8.39-6.87,6.64-4.93,8.32-2.78,9.41h0l2.78-9.41Zm-13.43-45.57-.91-1.93-.38-5.39.38,5.39Zm-6.61-79.75-1.7,3.11h0ZM487.63,718.27l1.39-.58-1.39.58Zm-.08-15.34-2.15-5h0l2.15,5,1.7,8,2.62,1.78,2.47,3.16h0l-2.47-3.16-2.62-1.78ZM493,684.75l2.87-5,1.93-.88-1.93.88Zm4.48-54.91.78,1.23h0ZM491,586.35l3.16-2.16,2.78-4.08.62-1.64-.62,1.64-2.78,4.08L491,586.35Zm-6.16,17.19,2.31-2.93,2.23-2-2.23,2-2.31,2.93ZM484,621.89l3.54-2.62,1.78-1.77,1.92-3.08,2-.7h0l-2,.7-1.92,3.08-1.78,1.77L484,621.89l-2,3.55Zm-2.21,9.44-1.34,2.82h0Zm-1.88,30.42h0l-9.64-2.62Zm-15.5-88.2h0l-3.54,1.62ZM458,705.08h0l-1.15,2.63Zm-41.71,70.16,2.16-.84.39-2,1.69-3.31.31-3.94,5.94,4.24,4.93,1.7,4.48-1.16-4.48,1.16-4.93-1.7-5.94-4.24-.31,3.94-1.69,3.31-.39,2-2.16.84-1.85,1.08Zm23.37,56.13-.16-2.93.34-2.74-.34,2.74Zm-.37.8-.79,1.75-1.29,1.1,1.29-1.1Zm-5-11.13.35-3.55-.35,3.55,3.08,1.93Zm.85,17.5L435,841l.15-2.47.44-1.62Zm2-37.39.54,5.4L437,812l-1.26,2.78L437,812l.69-5.47ZM406.29,801l-8.09-12.49-1.31-3.78,1.31,3.78Zm-18.43-24.83-.54-4.7.54,4.7,2.63,3.78,3.31.69,3.55-.15h0l-3.55.15-3.31-.69Zm8.87,62.37-.59,3.57.59-3.57Zm-.77,19-5-5.71,5,5.71,4.32,3.31h0Zm55.43-.85-5.16-.31-4.78-1.54-1.77-3.47-1.08-4.08-19.28-5.17-4.47-.85h0l-9.5-16.33,9.5,16.33,4.47.85,19.28,5.17-2.78-2.86,2.78,2.86,1.08,4.08,1.77,3.47,4.78,1.54,5.16.31,2.78,1.54ZM405,824.28l.1.16Zm35.62-54.36,3.32,3.4,1.15,4.39,1.62,3.86-1.62-3.86-1.15-4.39Zm18.81-39.32-6.63,3.94-3.31,2.77-1.08,15.5h0l-6.63-2.24-5-6.09-4.4-1.08-5.55,2.78-5.55,3.31,5.55-3.31,5.55-2.78,4.4,1.08,5,6.09,6.63,2.24,1.08-15.5,3.31-2.77,6.63-3.94,9.41-2.15,5.7-4.71h0l-5.7,4.71Zm35.78,26.22-.16,5.86L492,773l-.93,4.47-2.16,5.32-12.25,11.87-9.26,5.79-2,3.62h0l2-3.62,9.26-5.79,12.25-11.87,2.16-5.32L492,773,495,762.68l.16-5.86Zm-.39-4.71h0L499,748Zm13.26-25.05L499.89,730l-1.46,8.48.44,7.94-.44-7.94,1.46-8.48-2.62-1.08-3.09.69-1.46,1.08-.54,1.93-1.08,1.85,1.08-1.85.54-1.93,1.46-1.08,3.09-.69,2.62,1.08,8.17-2.93,8.48-1.08h0l.77-4,2.55-2.7,3.55-1.93h0l-3.55,1.93-2.55,2.7-.77,4h0Zm11,58.05h0l.23,2.62Zm24-21-15.5-12-3.47-3.62,3.47,3.62,15.5,12Zm5.08,22.67h0l.72,1.85Zm1-119.12h-18l-5.32.23-6.17,2.93h0l6.17-2.93,5.32-.23h18l1.23-8,1.7-2.16-1.7,2.16-1.23,8,10.87-.46Zm23,30.53h0l3.88.52Zm24.6,2.7-2.55-.86,2.55.86.39,2.08Zm3.85-31.07L596,666.38l-3.93-4.63-5.32-.46-5.4,2.7-5,.85-5.24-.16h0l2.54-4.39h0l-2.54,4.39,5.24.16,5-.85,5.4-2.7,5.32.46,3.93,4.63,4.55,3.47,5.86.15h0Zm1.54,98-1.23.26,1.23-.26,1.16-8.48-1.93-6h0l1.93,6Zm1.64-23,1.6-4.28,1.31-7.25h0l-1.31,7.25Zm3.84-13.07-.39.64.39-.64,1.08-.76Zm5.63-11.8-1.47,3.4,1.47-3.4.54-3.85-.21-1.87.21,1.87Zm4.16-61.75,4.78-1.83-4.78,1.83Zm6.09,7.86-.46,0,.46,0,1.54,1Zm2.31,1.54h0l3.16,4.94Zm6.09,6.17-1.23-.52,1.23.52,6.09,3.37Zm-.46-19.2L623,656.13l8.38-1.55,8.87-2.85Zm23.67,81.11h0l.39-4.78L652.7,718l-5.24-26.76,5.86-4.39-5.86,4.39L652.7,718l2.78,12.87h0Zm1.23,14.88h0l.78-3.24Zm1.24,9.64h0l1.15-4.86Zm7.94,16.42-.23,3.63.23-3.63,1.54-2h0Zm.38-5.63h0l1.24-3.7Zm9.72-44.94-2.2,2.66,2.2-2.66.77-3.24-2.78-5.55-1.23-6.48-2.39-6-5.24-12.42-3.32-5.09,3.32,5.09L670,704.78l2.39,6,1.23,6.48,2.78,5.55ZM685.7,654l-6.86,3.54L672,651.35l-9.64-3.17-5.24-1.61-6.17-.31,6.17.31,5.24,1.61,9.64,3.17,6.86,6.16L685.7,654Zm9.48,7.78-2.54-1.46-3.32-5.24L685.7,654h0l3.62,1.08,3.32,5.24,2.54,1.46,3.24.93Zm11.1-.07-3.16-.77,3.16.77,2.55-.85Zm20.9-211.79-1.62,1.92,1.08,2.55-1.47,4.47.39,2.54h0l-.39-2.54h0l-4.06-2.43,4.06,2.43,1.47-4.47-1.08-2.55,1.62-1.92,4.32-4.09,2.31-2.85,6.55-1.39,1.78-1.54h0l-1.78,1.54L733.81,443l-2.31,2.85Zm8.71,7.24,4.86.16,3.31,1.15,9.49,2.78h0l-9.49-2.78-3.31-1.15-4.86-.16L733,458Zm4.7,133.62,1.62-4.09-.46-6.79h0l.46,6.79-1.62,4.09-3.77,4h0Zm-7.17,66.84,10,.62h0Zm37.17-1.08,2.23-13.41-9.94-10.57H748l-6.25-9.71h0l6.25,9.71h14.88l9.94,10.57Zm7.47-59-1.54,2.7L775,601.69h0l1.54-1.46,1.54-2.7,1.85-2.16-.54-2.39-1.85-1.54-1.23-2.39-.15-17.35L769,560.6l-1.62-8.87.77-11.72-.77,11.72L769,560.6l7.17,11.1.15,17.35,1.23,2.39,1.85,1.54.54,2.39Zm11.65,45.41-2,2.47-3,5.7h0l3-5.7,2-2.47.84-3.93-.17-.77.17.77Zm11.1-19.81-2.7.85-.93,2.46L795,628.06l-2.47.16,2.47-.16,2.15-1.62.93-2.46,2.7-.85,3.08-.31,1.54-3.55-.07-3.93h0l.07,3.93-1.54,3.55Zm21.28-35.39-2.24,13.8L817.08,611h0l2.77-9.41,2.24-13.8.52-12.57Zm-1.78-29.68.53-16.2-.53,16.2,2.32,16.57Zm.54-16.73h0l-7.55.84,7.55-.84L822.7,527l-2.08-14.26-.31-3v-3.62l-.46-1.54-2.31-1.08-1.08-2.08-1.54-.46-2.55-1.47L808.29,498l-.39-11.65h0l.39,11.65,4.08,1.46,2.55,1.47,1.54.46,1.08,2.08,2.31,1.08.46,1.54v3.62l.31,3L822.7,527Zm.54-173.48h0l3.63,7.56h0Zm8.72,32.31-2.47-1.47-2.16-2.16,1.16-14.34.92-2.62-1.76-2.88,1.76,2.88-.92,2.62-1.16,14.34,2.16,2.16,2.47,1.47Zm-1.08-153h0l3.66,2.39Zm5.28,153.23,1.73.66,5.79.39,5.16,1,4.7,3.08,4.86,2.47h0l-4.86-2.47-4.7-3.08-5.16-1-5.79-.39Zm19.33,87.4-2.18-.77-2.54.46,2.54-.46Zm-17.52-49.11h0l14.26,13.1Zm22.67,161.6h0l3.62,1.54h0Zm11.1.38-4.4-.85h0l4.4.85Zm.77-2.93h0l3.47.23h0Zm12.41,1.31-3.23-.77-2.32-1.08h0l2.32,1.08,3.23.77Zm10.72-38.32h0l-5.47-2.69L884.23,554l-6.55-5.24-3.7-1.24L870.74,545l-.85-6.17-2-5.71-10.63-4.85-10.88-1.16h0l10.88,1.16,10.63,4.85,2,5.71.85,6.17,3.24,2.46,3.7,1.24,6.55,5.24,4.09,4.09,5.47,2.69Zm4.32-12.1-1.78,3.55-2.08,3.47,2.08-3.47Zm.69-47.88-5.94,1.72,5.94-1.72,6.32-.3ZM909,505.4l-1.77-2.7-2-2.24h0l2,2.24,1.77,2.7Zm4.7,2.31-1.46-2.78h0l1.46,2.78,2.24.54Zm8.41.08-3.4-.7,3.4.7Zm-.85-99.23-3.32,2.54-.85,4.55-1.61,5.79-1,6.09,1.39,2.93.39,3.16-2.47,4.47-.16,5.47-5.24,3.09-6.55,4.93L896,454.05h0l5.78-2.47,6.55-4.93,5.24-3.09.16-5.47,2.47-4.47-.39-3.16-1.39-2.93,1-6.09,1.61-5.79.85-4.55,3.32-2.54,4.24,1Zm9.82,97.59,20.4-1.37,3.39-.08h0l-3.39.08Zm18.86,88.68-4.7-1.93L943,591.67l2.24,1.23,4.7,1.93,4.24.54Zm6.71-33.07L951.54,557l-1.62-2.62v-6.79l-2.16-2.31-6.71-4.86,6.71,4.86,2.16,2.31v6.79l1.62,2.62,5.09,4.78h0l3.31,3.39-3.31-3.39Zm.15,30.14h0l4.32,6.17h0ZM983,617.11l-5,6.79-.31,3.08-4.78,2.86-2.77,3.85,2.77-3.85,4.78-2.86.31-3.08,5-6.79,2.63-.54Zm14.58-47.34,2-1.69,2.06-1.13-2.06,1.13Zm16-92.13-8.56,1.62-6.09,3.62.77,9-4.09,2.86-2.85,2.46v5.71l.46,8.17-5.7,3.24-4.94,3.7,2.16,2.78L997,523.36l2.85,1.08,2.77,1.54,6.63,1.7.08,2.93,1.54,2.54.24,3.47h0l-.24-3.47-1.54-2.54-.08-2.93-6.63-1.7-2.77-1.54L997,523.36l-12.34-2.54L982.53,518l4.94-3.7,5.7-3.24-.46-8.17v-5.71l2.85-2.46,4.09-2.86-.77-9,6.09-3.62,8.56-1.62,11.71-3.31ZM985.85,324.52h0l1.85-15h0Zm38.85-15.19h0l3.63-15.34h0Zm7.25-54.58-16.88-12.18-17.12-6-18.35-.61,1-4.25-1.38-3.23-4-.85h0l4,.85,1.38,3.23-1,4.25,18.35.61,17.12,6L1032,254.75l7.17,3.93,8.17.15h0l-8.17-.15Zm4.47,252.65h0l2.7,3Zm17.51-17.5,2.77-5.86-2.77,5.86Zm4.93,4.47-4.47-4.05,4.47,4.05,2.47.68Zm12.57,44.41-1.62-7.09.31-7.17-.31,7.17,1.62,7.09ZM1069.88,514h0l3.24-8.17-.38-5.7h0l.38,5.7Z"/></clipPath></defs><polygon class="cls-2" points="1024.89 734.38 1023.88 732.14 1022.57 732.76 1022.19 734.76 1022.88 736 1021.5 736.61 1020.26 736.69 1019.11 736.15 1018.03 735 1019.03 733.14 1013.01 735.38 1009.39 736.23 1006.46 736 1004.53 733.99 1005 731.14 1007.46 726.36 1007.31 723.89 1005.15 723.12 998.75 723.51 995.13 722.74 995.13 722.74 993.43 722.5 992.04 723.2 992.12 725.98 990.04 726.36 990.04 727.28 993.89 728.6 995.9 729.6 996.82 730.68 996.98 731.76 998.06 732.37 998.75 733.68 997.75 735.53 999.45 736.61 1003.3 737.77 1007.31 738.08 1009.39 736.85 1010.32 736.85 1011.55 738.23 1013.71 739.47 1015.17 740.93 1014.25 742.78 1017.02 744.48 1017.95 746.02 1018.03 747.64 1017.1 748.41 1014.71 747.72 1013.55 746.33 1012.01 747.56 1010.78 749.49 1010.78 750.49 1007.93 750.88 1006.46 752.42 1007.08 754.66 1006.62 756.58 1004.53 760.21 1002.14 762.75 1001.68 764.14 1002.45 765.99 1006.46 765.99 1006.54 763.83 1007.46 761.29 1010.32 762.13 1009.85 760.21 1009.78 757.51 1009.39 756.35 1014.79 755.27 1017.1 755.5 1016.33 757.35 1016.64 758.28 1017.87 758.97 1019.49 759.2 1021.34 756.66 1022.88 756.35 1021.73 751.11 1021.19 744.56 1022.88 739.85 1028.66 740.01 1027.97 737.69 1024.89 734.38"/><polygon class="cls-3" points="1009.74 744.67 1008.5 742.43 1010.2 746.06 1009.74 744.67"/><polygon class="cls-2" points="1014.52 749.26 1013.82 747.56 1011.97 745.25 1011.97 745.25 1010.28 741.63 1008.66 739.93 1006.42 739.08 1004.19 739.77 1006.81 741.01 1009.12 743.63 1007.73 744.4 1007.35 745.33 1007.89 746.41 1009.12 747.49 1010.2 747.41 1011.97 749.41 1014.52 749.26"/><polygon class="cls-2" points="1011.78 744.71 1010.39 742.16 1008.85 741.16 1007.46 741.55 1007.39 742.94 1008.85 746.1 1005 745.17 1005.3 746.56 1006.23 747.33 1010.16 746.25 1013.71 746.1 1013.71 745.17 1013.71 745.17 1011.78 744.71"/><polygon class="cls-2" points="1014.6 735.61 1012.74 736.92 1010.97 736.46 1010.74 737.46 1010.74 739.85 1008.97 741.32 1006.19 741.55 1003.96 742.71 1007.19 744.55 1006.58 747.25 1004.19 749.88 1002.1 751.42 1003.18 753.11 1005.03 753.5 1007.73 751.65 1008.5 750.26 1007.89 748.57 1009.43 747.95 1010.51 746.95 1013.44 741.55 1013.75 740.08 1013.67 738 1014.67 738 1015.6 739.85 1015.83 737.31 1016.6 735 1016.6 735 1014.6 735.61"/><polygon class="cls-3" points="1008.35 742.94 1008.43 745.56 1010.35 745.56 1010.35 745.56 1009.66 743.55 1008.35 742.94"/><polygon class="cls-2" points="1016.68 743.48 1015.52 744.4 1015.29 746.17 1012.44 745.25 1012.82 743.01 1011.82 740.55 1010.12 738.62 1008.43 737.46 1009.51 740.62 1011.36 743.4 1009.97 743.86 1009.04 743.09 1008.58 741.93 1005.88 742.24 1004.57 741.32 1005.5 744.55 1005.57 745.94 1004.57 747.18 1003.34 747.1 1002.34 745.87 1001.26 745.4 999.79 747.18 998.63 747.79 999.87 748.8 1001.57 749.18 1003.65 749.1 1006.19 749.88 1009.27 748.33 1011.36 749.1 1009.43 750.11 1009.43 751.03 1012.82 750.57 1015.75 749.26 1018.14 747.18 1020.07 744.25 1018.22 743.4 1016.68 743.48"/><polygon class="cls-2" points="1005.03 747.06 1005.57 748.83 1006.96 750.53 1009.66 748.37 1012.59 744.44 1013.67 740.51 1013.67 740.51 1010.66 737.96 1010.66 740.82 1008.43 740.28 1007.5 741.59 1007.27 743.75 1007.89 745.67 1005.65 745.83 1005.03 747.06"/><polygon class="cls-2" points="1007.42 742.4 1007.19 745.4 1008.5 748.18 1009.58 746.56 1009.58 746.56 1010.05 741.93 1011.51 740.32 1008.97 740.32 1007.42 742.4"/><polygon class="cls-2" points="1020.42 730.75 1019.03 729.29 1016.33 729.29 1016.33 730.22 1018.26 731.06 1019.18 733.22 1017.02 732.53 1016.02 733.61 1015.63 735.38 1016.33 737.08 1014.33 736 1013.09 737.54 1011.78 737.38 1011.78 737.38 1011.01 736.31 1011.47 734.15 1008.39 734.15 1008.16 732.61 1009.54 730.6 1011.47 729.29 1008.77 728.21 1005.92 728.37 1000.29 729.29 999.6 729.75 996.44 733.68 995.59 735.15 996.13 736.08 997.9 737.08 1003.84 743.25 1002.84 745.25 1001.29 745.71 999.91 745.63 995.98 744.79 998.9 749.57 999.83 749.57 1001.45 748.02 1003.99 749.64 1006.08 752.96 1006.62 756.35 1008.16 755.81 1009.16 754.73 1009.62 753.27 1009.54 751.49 1010.47 751.49 1010.39 757.12 1011.24 759.28 1013.55 760.28 1015.33 759.2 1012.47 757.59 1011.7 754.5 1012.55 751.26 1014.33 749.57 1012.55 748.72 1011.47 747.1 1011.39 745.33 1012.47 743.71 1011.55 741.55 1012.47 740.39 1014.09 740.62 1015.33 742.86 1017.33 740.62 1019.18 740.86 1020.11 739.16 1020.49 737.38 1021.26 735.84 1023.11 735.07 1021.42 732.84 1020.42 730.75"/><polygon class="cls-2" points="1010.62 742.63 1010.62 742.63 1011.39 740.47 1007.69 741.39 1005.77 742.47 1005.38 744.48 1006.62 748.02 1010.55 746.41 1012.17 745.17 1013.32 743.25 1010.39 743.25 1010.62 742.63"/><polygon class="cls-2" points="1013.25 739.39 1011.24 740.01 1006.54 743.25 1004.07 744.25 1004.07 745.17 1006.46 744.86 1007.93 745.02 1009 746.1 1009.85 748.18 1010.86 747.1 1012.71 749.1 1014.25 743.63 1014.25 743.63 1014.63 740.7 1013.25 739.39"/><polygon class="cls-2" points="1012.13 743.44 1009.43 743.98 1007.66 740.66 1007.66 740.66 1004.03 740.59 1001.1 742.67 1001.64 745.9 1003.26 746.68 1008.74 747.75 1010.35 747.91 1013.36 746.6 1014.9 746.52 1017.14 747.91 1017.6 745.83 1015.37 744.13 1012.13 743.44"/><g class="cls-4"><rect x="17.01" y="62.82" width="1465.98" height="874.35"/><rect class="cls-5" x="17.01" y="208.55" width="1465.98" height="145.73"/><rect class="cls-6" x="17.01" y="354.27" width="1465.98" height="145.73"/><rect class="cls-5" x="17.01" y="645.73" width="1465.98" height="145.73"/><rect class="cls-6" x="17.01" y="791.45" width="1465.98" height="145.73"/><circle class="cls-2" cx="750" cy="500" r="222.9"/><path class="cls-6" d="M710.71,329.28l-14.45-26.62c5.57-5.58,15-9.9,29.92-9.9,0,1-1.52,29.17-1.52,29.17Z"/><path d="M710.71,329.28l1-.56L697.3,302.09l-1,.57.84.84c5.32-5.31,14.34-9.54,29.08-9.54v-1.2H725c0,.05,0,.64-.06,1.49-.15,3-.51,9.94-.84,16.08s-.62,11.52-.62,11.54l1.19.06-.56-1.05-13.94,7.35.55,1,1-.56-1,.56.56,1.06,14.54-7.67,0-.68s.38-7,.76-14.2c.19-3.58.38-7.2.53-10,.07-1.39.13-2.58.17-3.44s.06-1.4.07-1.61v-1.19h-1.2c-15.18,0-24.93,4.4-30.77,10.24l-.63.63,15.45,28.45,1-.55Z"/><path class="cls-5" d="M724.66,322.18l2-29.42s29.93-1.77,46.16,17.76c.25-.26-16,22.82-16,22.82Z"/><path d="M724.66,322.18l1.19.09,2-29.42-1.19-.09.07,1.19.48,0,1.41,0a73.62,73.62,0,0,1,19.22,2.66c8.32,2.34,17.41,6.7,24.06,14.71l.85,1,.92-.95-.84-.82.75.91.09-.09-.84-.82.75.91-.76-.92.6,1,.16-.1-.76-.92.6,1-.6-1v1.19a1,1,0,0,0,.6-.17l-.6-1v0l-.4,1.12.4.07v-1.19l-.4,1.12.4-1.13-1.06.55a1.25,1.25,0,0,0,.66.58l.4-1.13-1.06.55,1.06-.54h-1.19a1.16,1.16,0,0,0,.13.54l1.06-.54h0l-1.13-.37a1.13,1.13,0,0,0-.06.37h1.19l-1.13-.37,1.09.35-1-.57-.09.22,1.09.35-1-.57.61.35-.6-.37v0l.61.35-.6-.37s-.34.51-.8,1.18l-8.8,12.57-4.43,6.3c-1.16,1.65-1.89,2.69-1.89,2.7l1,.68.39-1.12-32.21-11.16-.39,1.12,1.19.09-1.19-.09-.39,1.13,33.06,11.45.52-.73,8-11.38,5.49-7.84,1.82-2.61.51-.74.14-.22.06-.08,0-.07,0-.09,0-.12a1.17,1.17,0,0,0,0-.36,1.16,1.16,0,0,0-.3-.8l-.49-.33-.4-.07a1.06,1.06,0,0,0-.6.17.93.93,0,0,0-.26.2l.86.83.92-.76c-7.08-8.52-16.64-13.06-25.25-15.48a75.65,75.65,0,0,0-19.87-2.75c-1.28,0-2,0-2,0l-1,.07L723.41,323l.86.3Z"/><path class="cls-6" d="M757.38,333.09l14.71-22.83C782,320.66,786,328,787.56,339.18c.25.25-23.33,5.83-23.33,5.57S757.63,333.34,757.38,333.09Z"/><path d="M757.38,333.09l1,.64,14.71-22.82-1-.65-.87.83c4.91,5.15,8.32,9.51,10.69,13.91a40.58,40.58,0,0,1,4.47,14.34l0,.39.27.28.85-.83h-1.18a1.22,1.22,0,0,0,.33.83l.85-.83h0l-.87-.79a1.08,1.08,0,0,0-.31.79h1.18l-.87-.79.79.72-.5-1-.29.24.79.72-.5-1h0c-.19.07-.74.23-1.48.43-2.61.7-7.79,2-12.4,3-2.31.54-4.48,1-6.12,1.39l-2,.43-.59.11-.15,0h0l0,.63v-.63h0l0,.63v.46l.25-1.06-.25,0v1.09l.25-1.06-.27,1.14.68-.95-.41-.19-.27,1.14.68-.95-.69,1h1.19a1.21,1.21,0,0,0-.5-1l-.69,1h1.19a1.15,1.15,0,0,0-.07-.4l-.18-.39c-.47-.9-2.08-3.67-3.64-6.3-.77-1.32-1.52-2.58-2.1-3.54l-.72-1.17-.23-.37-.09-.13-.17-.2-.84.84,1,.64-1-.64-.84.84.7-.71-.79.61.09.1.7-.71-.79.61.13-.1-.14.09h0l.13-.1-.14.09.43.69c.79,1.28,2.38,3.95,3.76,6.31.69,1.18,1.33,2.28,1.79,3.1.24.41.42.75.55,1l.13.25v0l.36-.17-.37.14v0l.36-.17-.37.14.93-.35-.95.26,0,.09.93-.35-.95.26,1.1-.31H763l.05.31,1.1-.31H763a1.24,1.24,0,0,0,.5,1,1.1,1.1,0,0,0,.54.21l.19,0a4.17,4.17,0,0,0,.63-.08c1.72-.31,7.41-1.61,12.74-2.89,2.66-.64,5.21-1.27,7.11-1.75l2.3-.62.69-.21.27-.11.22-.12.24-.21a1.21,1.21,0,0,0,.29-.79,1.22,1.22,0,0,0-.34-.83l-.85.83,1.18-.16A42.81,42.81,0,0,0,784,323.87c-2.51-4.67-6.07-9.19-11.06-14.43l-1-1.1-16,24.91.68.68Z"/><path d="M718.07,710s27.64-31.7,81.41-24.85c-8.12-13.19-34.24-11.67-34.24-11.67s-8.11-61.63-1.78-64.67,33.23.25,33.23.25c3.55,0,9.64-9.63,4.82-15.72s-19-29.42-13.19-34,37.53,2.54,37.53,2.54L736.33,447.22s-9.13-43.12,9.13-63.91c22.06-18.27,19.78-38.05,19-37.79-3-20-33.48-34.5-54-16-12.17,14.71-4.06,25.87-4.06,25.87s-31.95,8.62-33.22,14.2,36-1,36-1l-3.55,25.61s-72.54,65.94-17,123a11.81,11.81,0,0,0,1.77-2.53S710,538.77,730.49,544.1c19.28,19.78,17.5,16.74,17.5,16.74s3.81,31.19.26,37.28c-4.82-1.52-54-3.3-61.38-.51-6.59,2-32,.76-25.61,42.1,4.81-11.16,9.13-21.05,9.13-21.05s-.76,15,5.32,20.29a46.83,46.83,0,0,1,5.84-26.37s1.26,17.24,5.07,19.78,3.8-27.9,24.85-25.37a236.74,236.74,0,0,0,36.27,1.78s7.1,59.6,4.82,65.18c-15.22-3.55-51.48,1.52-53.77,10.65,21.3-1.27,31.2,1.27,31.2,1.27S712.74,701.09,718.07,710Z"/><path d="M718.07,710l.9.79,0-.06c1.25-1.39,23.42-25.36,65.48-25.36a117.57,117.57,0,0,1,14.83,1l2.47.32-1.31-2.12c-3.57-5.78-10.15-8.78-16.57-10.41a68.58,68.58,0,0,0-16.21-1.88c-1.58,0-2.52,0-2.54,0l.07,1.19,1.18-.15s-.26-2-.65-5.27c-1.18-9.83-3.54-31.32-3.53-45.48a62.15,62.15,0,0,1,.52-9.17,12.08,12.08,0,0,1,.68-2.68,2.55,2.55,0,0,1,.36-.66l.18-.18a13.27,13.27,0,0,1,4-.9,57,57,0,0,1,6.17-.28c4.93,0,10.55.39,14.92.77,2.19.19,4.07.38,5.4.53s2.1.24,2.1.24h.15a4.82,4.82,0,0,0,2.86-1.15,12.86,12.86,0,0,0,3.41-4.35,13.93,13.93,0,0,0,1.52-6.1,9.54,9.54,0,0,0-2-6.06,105.4,105.4,0,0,1-8.67-13.82,74.7,74.7,0,0,1-4-8.71,22.1,22.1,0,0,1-1.63-7.06,5.32,5.32,0,0,1,.25-1.75,2.16,2.16,0,0,1,.67-1,6.33,6.33,0,0,1,2.65-.94,27,27,0,0,1,4.64-.33,122.88,122.88,0,0,1,18.82,2c3,.51,5.57,1,7.44,1.39s3,.63,3,.63l3.25.73L737.27,446.48l-.94.74,1.16-.25-.09-.47a130.88,130.88,0,0,1-2.16-23.44c0-13.25,2.31-29,11.11-39l-.89-.78.76.91c17-14.11,19.91-29.23,19.9-35.72a15.29,15.29,0,0,0-.16-2.41,4.44,4.44,0,0,0-.21-.8l-.22-.43-.31-.31a1.26,1.26,0,0,0-.73-.23l-.43.08.42,1.12,1.18-.18c-1.09-7.14-5.44-13.52-11.48-18.11a36.53,36.53,0,0,0-21.87-7.43,33.41,33.41,0,0,0-22.65,8.85l-.06.06-.06.07c-5.37,6.48-7,12.44-7,17.12a18.27,18.27,0,0,0,2.88,10.21l1-.7-.31-1.15s-8,2.16-16.22,5a103.42,103.42,0,0,0-11.5,4.68,26.14,26.14,0,0,0-4.13,2.48,5.55,5.55,0,0,0-2.22,2.89l-.07.54a2.36,2.36,0,0,0,1,1.88,6.84,6.84,0,0,0,3,1,30.17,30.17,0,0,0,4.28.25c10.7,0,29.08-3.27,29.12-3.27l-.21-1.17-1.18-.17-3.55,25.62,1.18.16-.8-.88a143.72,143.72,0,0,0-19.15,22.53c-9.55,13.81-19.16,32.79-19.17,53.5,0,15.86,5.7,32.7,21.27,48.69l.61.62.78-.39a2.1,2.1,0,0,0,.55-.42,10.42,10.42,0,0,0,1.15-1.61c.33-.53.58-1,.59-1l-1.05-.58-.92.75A125.78,125.78,0,0,0,702,528.28c7.53,6.75,17.64,14.21,28.23,17l.3-1.15-.85.83c7.38,7.57,11.68,11.8,14.19,14.16,1.26,1.18,2.07,1.89,2.62,2.33a6.78,6.78,0,0,0,.67.49l.32.17a1.36,1.36,0,0,0,.55.12,1.26,1.26,0,0,0,.93-.42,1.22,1.22,0,0,0,.31-.82,1.32,1.32,0,0,0-.12-.55l-.08-.17-2.22.74s.11.9.28,2.43c.49,4.57,1.48,14.81,1.48,23.09a63.45,63.45,0,0,1-.32,6.89,11.91,11.91,0,0,1-1,4.13l1,.6.36-1.14a14.36,14.36,0,0,0-2.07-.4c-6.16-.84-23.14-1.62-37.65-1.63-5.14,0-10,.1-13.87.34-1.95.12-3.68.27-5.12.46a16.58,16.58,0,0,0-3.45.75l.42,1.11-.35-1.14c-1.27.4-3.72.71-6.55,1.35-4.25,1-9.52,2.76-13.71,7.21s-7.21,11.5-7.2,22.57a81.6,81.6,0,0,0,1,12.29l.63,4.1,1.64-3.81c2.41-5.57,4.69-10.84,6.37-14.7s2.76-6.34,2.76-6.34l-1.09-.48-1.19-.06s0,.64,0,1.66a51.3,51.3,0,0,0,.88,9.48c.77,3.76,2.11,7.65,4.89,10.11l2.16,1.89-.19-2.87c-.06-1-.1-2.09-.1-3.1a47.87,47.87,0,0,1,2.9-16.42,39.68,39.68,0,0,1,2-4.57c.27-.52.49-.92.64-1.18l.18-.29,0-.09-1-.64-1.19.08s.32,4.36,1.12,9.06a49.07,49.07,0,0,0,1.61,6.85,16,16,0,0,0,1.18,2.79,5.58,5.58,0,0,0,1.69,2,2,2,0,0,0,1.1.35,2.05,2.05,0,0,0,1.42-.63,7,7,0,0,0,1.32-2.31c.66-1.64,1.32-3.87,2.19-6.33,1.3-3.69,3.06-7.86,5.75-11A14.12,14.12,0,0,1,709,608a18.37,18.37,0,0,1,2.29.14,260.15,260.15,0,0,0,30.49,1.89c3.8,0,6-.11,6-.11l-.06-1.19-1.18.14s.33,2.76.82,7.15c1.48,13.16,4.44,41.05,4.44,52.77,0,1.24,0,2.31-.1,3.12a6.84,6.84,0,0,1-.26,1.55l1.1.45.27-1.16a58,58,0,0,0-12.69-1.17,113.2,113.2,0,0,0-26.69,3.26A46.21,46.21,0,0,0,703,678.7a15.78,15.78,0,0,0-3.5,2.5,6.75,6.75,0,0,0-1.9,3.11l-.4,1.58,1.62-.1c4.24-.25,8-.35,11.36-.35a121,121,0,0,1,14.78.8c1.6.2,2.79.4,3.57.55l.86.17.26.06.3-1.15-.79-.89a65.24,65.24,0,0,0-6.61,6.95,41.59,41.59,0,0,0-4.58,6.74,16.58,16.58,0,0,0-2.16,7.44,8.56,8.56,0,0,0,1.2,4.47l.84,1.4,1.08-1.23-.9-.79,1-.61a6.13,6.13,0,0,1-.85-3.24,14.15,14.15,0,0,1,1.88-6.33,45.88,45.88,0,0,1,6.65-9c1.12-1.21,2.12-2.21,2.85-2.91.36-.35.65-.62.85-.8l.31-.28,1.68-1.49-2.18-.56c-.09,0-6.53-1.65-20.06-1.65-3.38,0-7.21.1-11.5.35l.07,1.19,1.16.29a4.4,4.4,0,0,1,1.27-2,18.88,18.88,0,0,1,6.14-3.58c8.26-3.31,21.75-5.33,32.78-5.32a56.48,56.48,0,0,1,12.15,1.11l1,.23.38-.94a7.75,7.75,0,0,0,.43-2.25c.08-.92.11-2,.11-3.32,0-8-1.32-23-2.64-36.08s-2.64-24.12-2.64-24.12l-.13-1.11-1.11.06s-.52,0-1.51,0-2.47.06-4.35.06a257.12,257.12,0,0,1-30.2-1.88,21,21,0,0,0-2.58-.16A16.3,16.3,0,0,0,697.73,610c-4.23,3.87-6.52,9.46-8.12,14-.79,2.29-1.41,4.32-2,5.72a8,8,0,0,1-.72,1.49l-.15.19.27.36v-.44l-.27.08.27.36v.08l.17-.49-.17,0v.52l.17-.49-.08.22.13-.2,0,0-.08.22.13-.2a3.31,3.31,0,0,1-.93-1.16,20.43,20.43,0,0,1-1.65-4.66,76.52,76.52,0,0,1-1.52-8.67c-.15-1.28-.27-2.38-.34-3.15s-.1-1.23-.1-1.23l-.27-3.56-1.93,3a47.48,47.48,0,0,0-6.12,23.84c0,1.06,0,2.15.1,3.26l1.19-.08.79-.9c-2.1-1.8-3.43-5.25-4.12-8.78a47.63,47.63,0,0,1-.83-9c0-.49,0-.88,0-1.14s0-.4,0-.4l-2.29-.53s-4.31,9.89-9.13,21l1.1.47,1.17-.18a79.84,79.84,0,0,1-1-11.93c0-7.11,1.27-12.3,3.21-16.12a20.17,20.17,0,0,1,11.63-10.11,39.24,39.24,0,0,1,6.18-1.63c1.89-.37,3.51-.61,4.76-1h.07a14.63,14.63,0,0,1,2.93-.62,161.4,161.4,0,0,1,18.67-.77c8.23,0,17.32.25,24.7.63,3.69.19,6.95.4,9.47.63,1.26.11,2.33.23,3.16.34a12.55,12.55,0,0,1,1.67.32l.91.28.48-.82a13.65,13.65,0,0,0,1.33-5.05,62.13,62.13,0,0,0,.34-7.17c0-11.27-1.77-25.78-1.77-25.81l-1.19.15-1,.6.68-.4-.72.31,0,.09.68-.4-.72.31.91-.39h-1a.94.94,0,0,0,.07.39l.91-.39H748l-.86-.75a1.1,1.1,0,0,0-.28.75H748l-.86-.75.86.75v-1.15a1.17,1.17,0,0,0-.86.4l.86.75v-.19l.38-.89a1.18,1.18,0,0,0-.38-.07v1l.38-.89-.15.36.18-.34,0,0-.15.36.18-.34a8.2,8.2,0,0,1-.92-.72c-1.78-1.51-6.11-5.62-16.13-15.91l-.24-.24-.32-.09c-9.94-2.56-19.87-9.81-27.24-16.44-3.69-3.31-6.75-6.46-8.88-8.78-1.06-1.16-1.9-2.11-2.46-2.77l-.65-.76-.21-.26-1.11-1.37-.86,1.54-.19.34c-.19.31-.47.79-.74,1.19l-.36.49-.1.11.11.11-.1-.12h0l.11.11-.1-.12.43.55-.32-.62-.11.07.43.55-.32-.62.54,1.06.85-.83c-15.18-15.61-20.59-31.73-20.6-47,0-19.95,9.34-38.55,18.75-52.15A153.38,153.38,0,0,1,700.59,401c1.76-1.92,3.23-3.41,4.26-4.42.51-.5.91-.89,1.18-1.14l.41-.39.32-.29,3.84-27.66-1.62.28-3,.51c-5.64.91-18,2.73-25.68,2.73a22.27,22.27,0,0,1-4.86-.41,3.07,3.07,0,0,1-1-.41l-.06,0h0l-.15.1h.18l0-.1-.15.1h.18v0a3.63,3.63,0,0,1,1.36-1.53,36.89,36.89,0,0,1,7.58-4c4.85-2,10.72-4,15.36-5.43,2.33-.72,4.35-1.31,5.78-1.72l2.29-.64,1.67-.45-1-1.4v0a16.32,16.32,0,0,1-2.41-8.79c0-4.13,1.38-9.47,6.44-15.6l-.92-.76.8.88a30.94,30.94,0,0,1,21-8.23,34.1,34.1,0,0,1,20.43,6.94c5.64,4.28,9.59,10.17,10.56,16.57l.22,1.45,1.38-.52-.41-1.08v1.16l.41-.08-.41-1.08v0l-.65.92a1.16,1.16,0,0,0,.65.21v-1.13l-.65.92.55-.77-.85.44a1,1,0,0,0,.3.33l.55-.77-.85.44.34-.18-.36.14,0,0,.34-.18-.36.14a3,3,0,0,1,.13.7,14.14,14.14,0,0,1,.09,1.67c0,5.86-2.56,20.25-19,33.89l-.08.06-.06.07c-9.45,10.81-11.69,27-11.71,40.54a130.61,130.61,0,0,0,2.31,24.4l.06.27,89.69,114.86.94-.74.27-1.16s-18.18-4.09-29.78-4.1a29.78,29.78,0,0,0-5.06.37,8.49,8.49,0,0,0-3.7,1.42,4.42,4.42,0,0,0-1.43,2,7.32,7.32,0,0,0-.41,2.56,24.1,24.1,0,0,0,1.79,7.89c3.24,8.69,9.93,19.23,13,23.18a7.21,7.21,0,0,1,1.53,4.58A12,12,0,0,1,800,605.1a9.28,9.28,0,0,1-1.88,2.08,2.64,2.64,0,0,1-1.41.65V609l.14-1.18a224.44,224.44,0,0,0-22.71-1.55,60.16,60.16,0,0,0-6.43.29A15.29,15.29,0,0,0,763,607.7a3.77,3.77,0,0,0-1.72,2.08,19.71,19.71,0,0,0-1.08,5.24c-.21,2.16-.3,4.7-.3,7.52,0,19.18,4.21,51,4.21,51.06l.14,1.1,1.11-.07.62,0c.41,0,1,0,1.78,0a66.39,66.39,0,0,1,15.63,1.81c6.14,1.54,12.11,4.41,15.12,9.34l1-.62.15-1.18a118.6,118.6,0,0,0-15.13-1c-44.42,0-67.22,26.1-67.33,26.23l.9.78,1-.61Z"/><path class="cls-7" d="M726.62,384.76s-52.78,58.17-30,102.69c1.21-6.21.68-10.11,1.44-9.85-1.27-.77,6.55,5.35,6,4.16.17-3.22-2.38-10.12-2.38-10.12l7.14,1.79q-2.07-3.87-4.16-7.74l10.12,1.19s-3.58-9.52-2.38-9.52,8.33.6,8.33.6C705.66,431,719.82,408.65,726.62,384.76Z"/><path class="cls-7" d="M726.62,384.76l-.89-.8a178.62,178.62,0,0,0-18,24.7c-9,14.79-18,34.46-18,54.2A54.46,54.46,0,0,0,695.55,488l1.57,3.07.66-3.38a57.49,57.49,0,0,0,.9-7.34c.05-.86.1-1.52.15-1.88l0-.2v0l-.19-.05.18.08v0l-.19-.05.18.08-.75-.35.54.62.21-.27-.75-.35.54.62-.67-.78v1a1.11,1.11,0,0,0,.67-.25l-.67-.78v0l-.32.93.32.06v-1l-.32.93,1-2.15-.18-.09-.15-.07a1.32,1.32,0,0,0-.42-.07,1.17,1.17,0,0,0-.71.23,1.23,1.23,0,0,0-.49,1,1,1,0,0,0,.17.61l.18.25.47.43c.67.57,2,1.57,3.17,2.46.61.44,1.2.85,1.69,1.16l.68.41.34.15a1.61,1.61,0,0,0,.55.11,1.32,1.32,0,0,0,.81-.29,1.29,1.29,0,0,0,.45-1,1.32,1.32,0,0,0-.16-.63l-1.07.53,1.19.06v-.38A26.11,26.11,0,0,0,704,475c-.61-2.08-1.21-3.71-1.22-3.73l-1.12.41-.29,1.16,7.15,1.79,2.61.65-1.28-2.37q-2.07-3.87-4.16-7.74l-1,.56-.14,1.19,10.12,1.19,1.94.23-.69-1.84s-.16-.42-.4-1.1c-.37-1-.92-2.6-1.37-4.09-.22-.75-.42-1.47-.56-2.08a6.87,6.87,0,0,1-.22-1.3v-.05l-.7-.1.56.4.14-.3-.7-.1.56.4-.81-.59v1a1,1,0,0,0,.81-.41l-.81-.59v1c.47,0,2.6.15,4.52.3l3.71.29,2.23.19-1.09-1.95a48.74,48.74,0,0,1-6.5-24.25c0-16.3,7.88-31.7,12.55-48l-2-1.13.89.8-1.15-.33c-4.54,16-12.62,31.62-12.64,48.7a51.11,51.11,0,0,0,6.79,25.41l1-.58.09-1.19-3.72-.3c-2-.15-4-.3-4.7-.3a1.35,1.35,0,0,0-.84.28,1.51,1.51,0,0,0-.53.82,2.4,2.4,0,0,0-.07.62,11.54,11.54,0,0,0,.45,2.55c.76,2.91,2.24,6.84,2.25,6.86l1.12-.42.13-1.18-10.11-1.19-2.28-.27,1.09,2,4.17,7.74,1-.57.29-1.16-7.14-1.78-2.19-.55.78,2.12s.15.38.37,1c.33,1,.82,2.51,1.23,4.09a19.55,19.55,0,0,1,.72,4.26V482l.14.28.86-.43h-1a.76.76,0,0,0,.1.43l.86-.43H704l-.73-.88a1.21,1.21,0,0,0-.42.88H704l-.73-.88.71.87v-1.13a1.19,1.19,0,0,0-.71.26l.71.87v-.4l.29-.68s0,0-.29,0v.73l.29-.68a10.86,10.86,0,0,1-1.18-.74c-.87-.6-2-1.43-2.87-2.12-.44-.34-.82-.65-1.08-.87l-.29-.25,0,0-.34.34.37-.3,0,0-.34.34.37-.3-.81.66.9-.54-.09-.12-.81.66.9-.54-1,.6h1.16a1.18,1.18,0,0,0-.16-.6l-1,.6h0l.7,1a1.16,1.16,0,0,0,.48-1h-1.18l.7,1-.7-.95v1.18a1.15,1.15,0,0,0,.7-.23l-.7-.95v0l-.39,1.07a1,1,0,0,0,.39.07v-1.14l-.39,1.07.28-.78-.39.74.11,0,.28-.78-.39.74h0l.61-1,.39-1.13-.45-.08a1.38,1.38,0,0,0-.91.35,1.79,1.79,0,0,0-.51.9,9.34,9.34,0,0,0-.2,1.47,61.52,61.52,0,0,1-.93,8.11l1.17.23,1.06-.54a52,52,0,0,1-5.57-24.05c0-19,8.8-38.38,17.68-53A185.53,185.53,0,0,1,722,392.25c1.66-2.14,3-3.81,4-4.95.49-.57.86-1,1.12-1.3l.39-.44-.88-.8-1.15-.33Z"/><path class="cls-7" d="M745,334.86s2.79,20-8.12,25.87c-1.77,1.27-8.62,3.55-7.6,7.61,1.27,5.58,4.31,4.57,8.62,3.55C749.26,369.86,762.45,345.52,745,334.86Z"/><path class="cls-7" d="M745,334.86l-1.18.17s0,.12.05.38a48.07,48.07,0,0,1,.26,5,36.65,36.65,0,0,1-1.46,10.74c-1.15,3.63-3.11,6.79-6.35,8.52l-.07,0-.06,0a19.7,19.7,0,0,1-1.76,1,23.43,23.43,0,0,0-4,2.47,8,8,0,0,0-1.68,1.84,4.42,4.42,0,0,0-.62,3.58l1.16-.29-1.17.27a7.83,7.83,0,0,0,2,4,4.66,4.66,0,0,0,3.35,1.23,22.11,22.11,0,0,0,4.73-.83l-.27-1.16.21,1.18c4.18-.77,8.23-4,11.34-8.3a27,27,0,0,0,5.23-15.24,17.71,17.71,0,0,0-9.06-15.68l-2.15-1.31.35,2.49,1.18-.17-.62,1c5.78,3.55,7.89,8.45,7.92,13.65a24.6,24.6,0,0,1-4.79,13.85c-2.84,4-6.58,6.79-9.82,7.34h-.06a21.26,21.26,0,0,1-4.19.77,2.33,2.33,0,0,1-1.71-.58,5.51,5.51,0,0,1-1.29-2.84h0v0l-.06-.52a2.58,2.58,0,0,1,.69-1.63,11.7,11.7,0,0,1,3.24-2.39c.63-.35,1.25-.67,1.81-1a12.19,12.19,0,0,0,1.47-.85l-.7-1,.57,1c4-2.13,6.24-5.93,7.49-9.9a38.48,38.48,0,0,0,1.57-11.46,44.58,44.58,0,0,0-.33-5.72l-1.18.16-.62,1Z"/><circle class="cls-2" cx="721.39" cy="352.19" r="4.29"/><path class="cls-6" d="M708.43,368.85c-2.79,2.28-17.5,17.5-3,23.08,15-4.06,10.9-6.85,14.2-10.15C719.67,374.94,712.15,373.16,708.43,368.85Z"/><path d="M708.43,368.85l-.75-.92a36.61,36.61,0,0,0-5.58,6.15c-2.15,3-4.15,6.6-4.17,10.27a8,8,0,0,0,1.64,5A12,12,0,0,0,705,393l.36.14.38-.1a46.1,46.1,0,0,0,8.29-2.92,12.23,12.23,0,0,0,3.16-2.13,8,8,0,0,0,1.92-3.11,5.89,5.89,0,0,1,1.36-2.29l.35-.35v-.61a8.78,8.78,0,0,0-1.41-4.89,18,18,0,0,0-5.1-4.75,26.33,26.33,0,0,1-4.94-4l-.76-.88-.89.74.75.92-.9.78c2.06,2.37,4.92,3.89,7.13,5.64a11.8,11.8,0,0,1,2.7,2.79,6.48,6.48,0,0,1,1,3.61v.1h1.19l-.84-.84a7.66,7.66,0,0,0-1.77,2.8,5.85,5.85,0,0,1-2.12,3.12c-1.42,1.09-4.24,2.42-9.79,3.92l.32,1.15.42-1.11a9.72,9.72,0,0,1-4.34-2.94,5.65,5.65,0,0,1-1.16-3.53c0-2.74,1.69-6.1,3.72-8.87a35.33,35.33,0,0,1,5.15-5.71l-.75-.92-.9.78Z"/><path class="cls-7" d="M740.38,512.65c-.76,3.3-4,15.47.51,24.85,12.68-5.32,18.52-3.8,22.83-1C753.32,528.12,749.26,524.57,740.38,512.65Z"/><path class="cls-7" d="M740.38,512.65l-1.16-.27a58.07,58.07,0,0,0-1.89,13.51A27.73,27.73,0,0,0,739.82,538l.49,1,1-.44c6.06-2.54,10.45-3.46,13.76-3.46a13.82,13.82,0,0,1,8,2.35l1.4-1.93c-10.4-8.38-14.27-11.75-23.13-23.62l-1.54-2.07-.58,2.51,1.16.27-1,.71c8.9,12,13.15,15.7,23.54,24.06l.75-.93.65-1a16.25,16.25,0,0,0-9.26-2.73c-3.76,0-8.44,1-14.68,3.65l.46,1.09L742,537a25.45,25.45,0,0,1-2.25-11.09,54.9,54.9,0,0,1,1.84-13l-1.17-.27-1,.71Z"/><path class="cls-2" d="M762.2,570.22l.76,28.41s9.89,1.77,14.45,0S777.16,578.84,762.2,570.22Z"/><path class="cls-2" d="M762.2,570.22l-1.2,0,.79,29.38,1,.17a59.08,59.08,0,0,0,8.89.81,18.14,18.14,0,0,0,6.2-.87,3.48,3.48,0,0,0,1.91-2,7.46,7.46,0,0,0,.51-2.92c0-3.41-1.47-8.06-4.35-12.8a37.5,37.5,0,0,0-13.12-12.88L761,568.13l0,2.12,1.2,0-.6,1a35,35,0,0,1,12.27,12.07c2.72,4.41,4,8.82,4,11.55a5.13,5.13,0,0,1-.32,2,1.13,1.13,0,0,1-.58.67,16.07,16.07,0,0,1-5.34.7,51.33,51.33,0,0,1-5.81-.38c-.8-.1-1.47-.2-1.94-.27l-.72-.12-.21,1.18,1.19,0-.76-28.4-1.19,0-.6,1Z"/><path class="cls-7" d="M834,573.77S815.71,529.64,769,518.48s-40.58-60.86-36.77-63.91c2-4.31,3.55-10.9,17-4.56s75.33,37.53,84.2,39.05S834.73,574.79,834,573.77Z"/><path d="M834,573.77l1.1-.45a101.94,101.94,0,0,0-15.15-23.77C809.42,537,793,523,769.32,517.32c-15.87-3.8-25.38-12.05-31-21.37s-7.38-19.76-7.38-27.8a44.53,44.53,0,0,1,.82-8.93,16.9,16.9,0,0,1,.76-2.72,4.5,4.5,0,0,1,.37-.76l.13-.19,0,0h0l.22-.17.12-.25a22.65,22.65,0,0,1,2.34-4.5,5.16,5.16,0,0,1,4.42-2c1.95,0,4.74.67,8.64,2.52,6.7,3.15,25.54,12.54,43.81,21.33,9.13,4.39,18.13,8.63,25.41,11.88,3.64,1.62,6.85,3,9.44,4a35.79,35.79,0,0,0,5.85,1.92c.06,0,.18.05.4.3a7.6,7.6,0,0,1,1.24,2.91c1.17,4.39,1.64,12.5,1.64,21.8,0,12.39-.8,27-1.67,38.51-.44,5.75-.89,10.72-1.26,14.25-.19,1.76-.36,3.16-.49,4.11-.07.47-.13.83-.17,1l0,.12v0l.65.2-.6-.32-.05.12.65.2-.6-.32,1,.51-.78-.76-.19.25,1,.51-.78-.76.83.82v-1.17a1.17,1.17,0,0,0-.83.35l.83.82v0l1-.68a1.18,1.18,0,0,0-1-.49v1.17l1-.68-1,.69,1.1-.45-1.1.45-1,.7a1.22,1.22,0,0,0,1.8.19,1.17,1.17,0,0,0,.32-.47l.13-.43c.12-.52.24-1.36.4-2.61,1.07-8.62,3.27-35.21,3.27-55.9a140.41,140.41,0,0,0-.94-18.4,26.3,26.3,0,0,0-1.39-5.91,6.92,6.92,0,0,0-1.12-1.95,3,3,0,0,0-1.81-1.1,34.3,34.3,0,0,1-5.38-1.79c-8.9-3.51-25.62-11.42-41.54-19.14s-31.06-15.24-37-18c-4.09-1.93-7.17-2.74-9.66-2.74a7.54,7.54,0,0,0-6.28,2.91,23.89,23.89,0,0,0-2.64,5l1.08.51-.75-.93a4.78,4.78,0,0,0-1.25,2c-1,2.48-1.74,6.93-1.75,12.52a56.78,56.78,0,0,0,7.72,29c5.93,9.82,16.09,18.53,32.53,22.45,23,5.5,39,19.14,49.32,31.44a108.94,108.94,0,0,1,11.26,16.21c1.21,2.13,2.09,3.87,2.67,5.08.29.6.5,1.07.64,1.39s.21.47.21.47l0,.13.08.11Z"/><path class="cls-6" d="M789.59,518.23c-.76.51,62.39,37.28,43.37,69,18-11.92,12.17-32.71,12.17-32.71s14.71,38.29-21,57.06c3.8,3.3,6.34,2.54,6.34,2.54l-6.09,6.08s-2.79,4.57,21.31-7.1c-6.6,5.33-7.1,9.13-7.1,9.13s1.77,5.08,17.5-8.62c-12.69,13.7-15.48,20.8-15.48,20.54,34.24-3,108.81-114.38-23.58-147.35,7.1,7.36,6.08,6.34,6.08,6.34Z"/><path d="M789.59,518.23l-.65-1a1.23,1.23,0,0,0-.55,1,1.26,1.26,0,0,0,.17.63l.27.33a9.64,9.64,0,0,0,1,.78c3.35,2.38,14.77,9.84,25.36,19.87a89.23,89.23,0,0,1,14.07,16.57c3.72,5.92,6.07,12.09,6.07,18.17a23,23,0,0,1-3.41,12l1.68,1.61a29.43,29.43,0,0,0,11.08-13,32.64,32.64,0,0,0,2.53-12.87,33.29,33.29,0,0,0-.94-8.17l-1.15.33-1.11.42s0,.1.11.33a55.07,55.07,0,0,1,2.8,17.33,42.86,42.86,0,0,1-4.53,19.77c-3.45,6.68-9.26,13.1-18.88,18.16l-1.54.81,1.32,1.14c2.77,2.42,5.1,2.91,6.4,2.9a3.83,3.83,0,0,0,1.06-.12l-.34-1.14-.84-.85-6.19,6.19-.07.12a1.78,1.78,0,0,0-.28,1,1.64,1.64,0,0,0,.7,1.33,2.54,2.54,0,0,0,1.49.4c1.21,0,3-.42,6.23-1.62s7.91-3.2,14.7-6.49l-.52-1.07-.75-.93c-6.79,5.48-7.5,9.6-7.54,9.9l0,.29.09.26a2.32,2.32,0,0,0,.73,1,3.52,3.52,0,0,0,2.3.73c1.38,0,3.18-.51,5.79-2a66.05,66.05,0,0,0,10.59-7.86l-.78-.9-.88-.81a126,126,0,0,0-12.49,15.47c-1.17,1.76-1.95,3.09-2.44,4-.25.45-.43.79-.54,1l-.12.23h0l.67.38-.63-.44,0,.06.67.38-.63-.44.92.65-.8-.79-.12.14.92.65-.8-.79.84.83-.63-1-.21.17.84.83-.63-1,.64,1V633a1.16,1.16,0,0,0-.64.18l.64,1v0l.79-.89a1.2,1.2,0,0,0-.79-.3v1.19l.79-.89-.79.89,1.16-.24a1.17,1.17,0,0,0-.37-.65l-.79.89,1.16-.24-1.15.23h1.18l0-.23-1.15.23h0l.11,1.19c5.21-.47,11.05-3.21,17-7.57,17.67-13.1,36.14-41,36.18-69.68a59.4,59.4,0,0,0-16.76-41.77c-12-12.72-31.13-23.54-59.78-30.68l-4-1,2.88,3,5.14,5.33c.42.44.67.7.8.85l.14.14h0l.43-.39-.45.37,0,0,.43-.39-.45.37.86-.71-.9.66,0,.05.86-.71-.9.66,1-.69-1,.58.07.11,1-.69-1,.58,1-.59-1.1.45.07.14,1-.59-1.1.45,1.1-.45h-1.19a1.14,1.14,0,0,0,.09.45l1.1-.45h0l-1-.61-.17.61h1.19l-1-.61,1,.61-.46-1.1a1.22,1.22,0,0,0-.56.49l1,.61-.46-1.1.46,1.1L823,492l-.37.09.46,1.1L823,492l.09,1.19V492H823l.09,1.19v0l.56-1.06a1.29,1.29,0,0,0-.56-.13v1.19l.56-1.06-.55,1.05.72-.93-.17-.12-.55,1.05.72-.93-.63.81.71-.75-.08-.06-.63.81.71-.75h0l-.73-.73-34.31,25.73.72,1-.65-1,.65,1,.71.95,33.48-25.1-.72-1-.84.84,0,0,0,0,.05,0,.08.07.13.07a1.07,1.07,0,0,0,.55.14l.24,0a1.06,1.06,0,0,0,.44-.19l.35-.37.17-.61a1.07,1.07,0,0,0-.12-.51l-.11-.19-.09-.11c-.1-.11-.35-.38-1.24-1.31l-4.91-5.1-.86.83-.29,1.16c28.36,7.06,47,17.71,58.62,30a57,57,0,0,1,16.12,40.14c0,18.4-8,36.78-18.48,50.73a83.94,83.94,0,0,1-16.74,17c-5.68,4.21-11.22,6.72-15.75,7.11l-1.09.1v1.09a1.24,1.24,0,0,0,.07.4l.33.49a1.22,1.22,0,0,0,.8.31,1.11,1.11,0,0,0,.73-.26l.25-.26.16-.27a49.33,49.33,0,0,1,3.55-5.87,127.22,127.22,0,0,1,11.65-14.27l-1.66-1.71a63.55,63.55,0,0,1-10.18,7.58,10.47,10.47,0,0,1-4.63,1.67,1.21,1.21,0,0,1-.79-.19l0,0-.42.27.46-.16,0-.11-.42.27.46-.16-1.12.39,1.18.16-.72-.1.72.12v0l-.72-.1.72.12,0-.14c.17-.67,1.21-3.85,6.64-8.24l-1.27-2c-6.74,3.26-11.36,5.24-14.48,6.4a19.11,19.11,0,0,1-5.41,1.46l-.23,0v0h0v0l-.21.58.5-.35-.29-.23-.21.58.5-.35-.63.44h.77l-.14-.44-.63.44h.24l.45.28a.45.45,0,0,0,.08-.28h-.53l.45.28-1-.63.85.85,6.08-6.09-1.18-2,.13.44-.1-.44h0l.13.44-.1-.44a2.77,2.77,0,0,1-.41,0c-.73,0-2.41-.23-4.84-2.32l-.78.9.55,1.06c10-5.25,16.22-12.07,19.89-19.17a45.28,45.28,0,0,0,4.8-20.87,56.78,56.78,0,0,0-3.08-18.51l-2.26.75,0,.12a31.33,31.33,0,0,1,.83,7.4,30.28,30.28,0,0,1-2.34,11.93,27,27,0,0,1-10.2,12l.66,1,1,.62a25.39,25.39,0,0,0,3.74-13.24c0-7.32-3.06-14.48-7.54-21.13-6.73-10-16.71-18.84-25-25.33-4.15-3.24-7.89-5.89-10.58-7.76-1.34-.93-2.43-1.67-3.16-2.19l-.82-.59-.13-.11L790,518l.53-.41-.07-.08L790,518l.53-.41-.9.68h1.12a1.05,1.05,0,0,0-.22-.68l-.9.68h0l.64,1a1.21,1.21,0,0,0,.53-1H789.6l.64,1,0,0,0,0Z"/><path class="cls-2" d="M792.38,507.32c8.62,6.09,11.66,8.12,12.68,11.16a57.86,57.86,0,0,0-15-1.27s-17-16.23-20-17.49c-2.28,0-15.47-8.37-15.47-8.37-6.6-3.3-12.68-26.13,11.67-19.53,25.1,11.92,28.65,12.93,28.65,12.93l29.93,9.39,17.25,19.27s-30.69-15.22-34.5-15.47a57.89,57.89,0,0,1,13.19,16.23C811.06,511.38,802.61,508.85,792.38,507.32Z"/><path d="M792.38,507.32l-.69,1c4.31,3,7.22,5.07,9.11,6.66s2.71,2.67,3.13,3.9l1.13-.38.26-1.16A59.11,59.11,0,0,0,792.6,516c-1.6,0-2.57.06-2.59.07l.08,1.18.83-.86s-4.26-4.06-8.9-8.29c-2.32-2.11-4.74-4.27-6.78-6-1-.86-2-1.61-2.73-2.19a10.47,10.47,0,0,0-2-1.26l-.22-.1h-.24v0h0v0a5.31,5.31,0,0,1-1.06-.34,80.48,80.48,0,0,1-8.39-4.54c-1.47-.88-2.82-1.7-3.8-2.31l-1.58-1-.05,0-.06,0a9.39,9.39,0,0,1-3.52-4.14,15.63,15.63,0,0,1-1.69-6.74,7.53,7.53,0,0,1,1.84-5.3c1.26-1.33,3.32-2.27,6.74-2.28a28.64,28.64,0,0,1,7.45,1.15l.32-1.15-.52,1.07c25.14,11.93,28.66,12.95,28.84,13l.33-1.15-.35,1.14,29.92,9.38.36-1.13-.89.79,17.25,19.28.89-.8.52-1.07s-7.68-3.81-15.84-7.65c-4.08-1.92-8.28-3.85-11.71-5.32-1.72-.74-3.25-1.36-4.48-1.81a12.74,12.74,0,0,0-2.91-.81L804,496.5l2.88,2.36a53.28,53.28,0,0,1,9.51,10.45c1.11,1.57,1.95,2.93,2.52,3.89.29.49.5.87.64,1.13s.21.39.21.39l1.06-.55.33-1.14c-9.71-2.79-18.23-5.35-28.56-6.89l-.86,2.16.69-1-.18,1.18c10.13,1.51,18.52,4,28.25,6.82l2.65.76-1.26-2.45A58.5,58.5,0,0,0,808.35,497l-.76.92-.08,1.19a11.86,11.86,0,0,1,2.25.67c4.11,1.5,12.1,5.19,19,8.48,3.46,1.64,6.66,3.19,9,4.33l3.79,1.87,1.42-1.86-17.24-19.28-.22-.24-.31-.1-29.93-9.39h0l-.15.52.16-.52h0l-.15.52.16-.52c-.08,0-4.19-1.33-28.48-12.87l-.1-.05-.1,0a31.08,31.08,0,0,0-8.08-1.23c-3.85,0-6.67,1.12-8.47,3a9.89,9.89,0,0,0-2.49,6.94,17.85,17.85,0,0,0,1.94,7.81,11.53,11.53,0,0,0,4.58,5.2l.54-1.06-.64,1s3.31,2.1,6.92,4.21c1.8,1.05,3.68,2.11,5.27,2.91.8.4,1.53.74,2.16,1a5.08,5.08,0,0,0,1.76.45v-1.19l-.46,1.1a9,9,0,0,1,1.48,1c2.56,1.91,7.14,6,11,9.59,2,1.8,3.74,3.47,5,4.7s2.11,2,2.11,2l.38.36.53,0,.62,0c.42,0,1,0,1.8,0a56.79,56.79,0,0,1,12.2,1.31l2.06.46-.67-2a11.22,11.22,0,0,0-3.85-5c-2-1.71-5-3.74-9.28-6.78l-.68,1-.18,1.18Z"/><path d="M672.92,371.13s29.42-7.1,33-6.09"/><path class="cls-2" d="M673.2,372.29s1.6-.39,4.1-1c3.74-.87,9.51-2.17,14.92-3.26,2.7-.54,5.31-1,7.53-1.38a38.24,38.24,0,0,1,5.1-.55,3.34,3.34,0,0,1,.72.05l.65-2.29a5.43,5.43,0,0,0-1.37-.15,55.44,55.44,0,0,0-7.85,1c-9.93,1.75-24.34,5.23-24.36,5.23l.56,2.32Z"/></g><polygon class="cls-3" points="1009.35 744.25 1009.35 744.25 1009.35 744.25 1009.35 744.25"/><polygon class="cls-3" points="1009.35 744.25 1009.35 744.25 1009.35 744.25 1009.35 744.25"/></svg>