<svg version="1.1" id="Layer_1" xmlns="http://www.w3.org/2000/svg" xmlns:xlink="http://www.w3.org/1999/xlink" x="0px" y="0px" viewBox="0 0 227 249.1" style="enable-background:new 0 0 227 249.1;" xml:space="preserve">
 <g>
  <path d="M206.9,47.6l-0.1-0.1l-1.3-0.8l-0.3-0.2L135,6l-1.2-0.7c-6-3.4-12.9-5.3-20.3-5.3c-7.4,0-14.3,1.9-20.2,5.3l-1,0.6L92,6.1
		L21.4,46.8L20,47.6h-0.1C8,54.9,0,68.1,0,83.1v83c0,15.1,8,28.2,20,35.5l0.9,0.5l71.9,41.5c6.1,3.5,13.1,5.5,20.7,5.5
		c7.5,0,14.6-2,20.7-5.5l71.8-41.5l0.2-0.1c12.4-7.2,20.8-20.6,20.8-36V83C226.9,68,218.9,54.8,206.9,47.6z M210,125.8L210,125.8
		h-0.4c-52.3,0.2-94.9,43-94.9,95.3c0,0.7-0.6,1.2-1.2,1.2c-0.7,0-1.2-0.6-1.2-1.2v-0.4c-0.2-52.3-43-94.9-95.3-94.9
		c-0.7,0-1.2-0.6-1.2-1.2c0-0.7,0.6-1.2,1.2-1.2h0.4c52.3-0.2,94.9-43,94.9-95.3c0-0.7,0.6-1.2,1.2-1.2c0.7,0,1.2,0.6,1.2,1.2
		c0,52.5,42.7,95.3,95.3,95.3c0.7,0,1.2,0.6,1.2,1.2C211.3,125.3,210.7,125.8,210,125.8z">
  </path>
 </g>
</svg>