<?xml version="1.0" encoding="UTF-8"?>
<svg width="149px" height="28px" viewBox="0 0 149 28" version="1.1" xmlns="http://www.w3.org/2000/svg" xmlns:xlink="http://www.w3.org/1999/xlink">
    <title>logoB</title>
    <g id="Page-1" stroke="none" stroke-width="1" fill="none" fill-rule="evenodd">
        <g id="Artboard" transform="translate(-91.000000, -15.000000)" fill="#090D33" fill-rule="nonzero">
            <g id="Group-18" transform="translate(91.090742, 15.106388)">
                <g id="Group-7" transform="translate(13.245510, 13.499359) rotate(-2.000000) translate(-13.245510, -13.499359) translate(0.448016, 0.438670)">
                    <g id="Group" transform="translate(0.000000, 0.000000)">
                        <g id="logo" transform="translate(0.000000, 0.000000)">
                            <g id="Group-12" transform="translate(12.797494, 13.060689) rotate(1.000000) translate(-12.797494, -13.060689) translate(0.222229, 0.217513)">
                                <path d="M25.1082876,14.1054819 C25.2311593,12.3004734 25.0856755,10.6735533 24.6758541,9.26993221 C24.3407836,8.12256837 23.8294879,7.12080956 23.1564502,6.29172522 C22.6074055,5.61527445 22.0370567,5.16330048 21.5802357,4.87161552 C22.6103021,3.83332724 23.19177,2.78972954 23.3111844,1.76146169 C23.4242451,0.782099277 23.0538547,0.18281063 23.0381571,0.158058725 C22.9407941,0.0042663803 22.7425176,-0.0452374302 22.586008,0.0449180129 C22.4566891,0.119173729 22.392964,0.267666164 22.4202481,0.409680933 C22.4010932,0.471551198 22.2833607,0.746738055 21.5976153,1.26529332 C20.7865689,1.87813568 20.2799452,2.73846859 20.1315648,3.75259385 C20.0897978,4.03662339 20.0822293,4.29531214 20.0886766,4.50980649 C20.0642891,4.52807123 20.041677,4.54869149 20.0202796,4.570499 C20.0045819,4.58640823 19.9900989,4.60349521 19.9761766,4.62117107 C19.7964943,4.6176378 19.587192,4.62942487 19.3599495,4.67420815 C18.736808,4.7973693 17.8526926,5.19453006 17.1832056,6.39012496 C16.7855312,7.10019881 16.5582887,7.28227633 16.4875558,7.32530247 C16.3698232,7.31115039 16.2492875,7.36006532 16.1745367,7.4626442 C16.0683906,7.60872414 16.0922174,7.81378693 16.2290114,7.93108778 C16.2487269,7.94818426 16.6603236,8.29172855 17.3495262,8.29172855 C17.453897,8.29172855 17.564061,8.28403513 17.6805789,8.26579889 C18.5159193,8.13672046 19.3564923,7.54803163 20.1894967,6.51274472 C20.2694801,6.90282943 20.347221,7.35712092 20.3999203,7.84266098 C20.5373684,9.10666081 20.5309211,10.8285614 19.7176322,11.8562499 C18.7194284,13.1172103 17.893899,12.9645767 15.1843687,12.2404458 C14.1113206,11.9534149 12.7757103,11.5963833 11.1241844,11.2987146 C8.17404983,10.7666341 5.43727278,10.9593495 3.66164179,11.2138971 C1.73239786,11.4908601 0.506325558,11.8915826 0.455317467,11.9086791 C0.203724893,11.991692 0.0286584709,12.2250589 0.0170627498,12.4937586 C-0.113956751,15.4188716 0.511548772,18.1484197 1.82514494,20.3858742 C3.12948135,22.6073719 4.99959738,24.1718899 7.23433857,24.9108378 C8.80532051,25.4300009 10.4018112,25.6863532 11.9698965,25.6863532 C14.0197509,25.6863532 16.0202697,25.2479234 17.8486748,24.3875905 C18.9599392,25.0375417 20.0631678,25.2319667 20.9825095,25.2319667 C21.2631054,25.2319667 21.5263217,25.2137305 21.7674866,25.1854263 C23.1430885,25.0228197 24.0961615,24.4989076 24.1361532,24.4771571 C24.2850942,24.3940492 24.3569484,24.2172906 24.3082669,24.0517396 C24.2601461,23.8860937 24.1041972,23.777721 23.9355407,23.7906384 C22.7448535,23.8831493 21.610323,23.4058726 20.797034,22.49539 C23.3350113,20.3457924 24.8873989,17.3522936 25.1082876,14.1054819 Z M20.3924452,21.965684 C20.0074785,21.3787998 19.6416667,20.892025 19.2979063,20.4877882 C22.3106447,19.716452 23.5865478,17.4742485 24.0016017,16.5261536 C23.3650985,18.6157235 22.1013424,20.5054546 20.3924452,21.965684 Z M0.672702197,12.5415338 C0.848347938,12.5079107 2.42398311,12.2268636 4.4001799,12.5915885 C6.2378167,12.9310486 8.78971627,13.9121967 10.7351998,16.6339564 C10.7780881,16.3369526 11.0308393,16.1089045 11.3368505,16.1089045 C11.6731357,16.1089045 11.9456025,16.383588 11.9456025,16.7229531 C11.9456025,17.0618434 11.6731357,17.3370017 11.3368505,17.3370017 C11.2910656,17.3370017 11.2464954,17.3316828 11.2035137,17.3217099 C12.0702495,18.5556009 13.150212,19.5042656 14.3437957,20.0765229 C14.5547799,20.177867 14.7698754,20.2674336 14.9873068,20.3457924 C14.9884281,20.3699175 14.9895493,20.3947074 14.9913247,20.4194023 C15.0371095,21.0694485 15.3362063,22.3533942 16.8214116,23.6474079 C16.945498,23.7553056 17.070145,23.8560799 17.194792,23.9509654 C14.1809323,25.2538122 10.7636051,25.376337 7.43719361,24.2767483 C3.14513231,22.8572655 0.428070793,18.1431008 0.672702197,12.5415338 Z" id="Shape"></path>
                            </g>
                        </g>
                    </g>
                </g>
                <g id="DeepSeek-AI" transform="translate(37.617903, 7.640187)">
                    <path d="M0,0.791940553 L4.78935477,0.791940553 C5.64414775,0.791940553 6.4203752,0.930215887 7.11803711,1.20676656 C7.81569903,1.48331723 8.41279706,1.89500061 8.90933122,2.4418167 C9.40586538,2.9886328 9.78926517,3.67372423 10.0595306,4.497091 C10.329796,5.32045776 10.4649287,6.27895724 10.4649287,7.37258943 C10.4649287,8.46622162 10.329796,9.4247211 10.0595306,10.2480879 C9.78926517,11.0714546 9.40586538,11.7565461 8.90933122,12.3033622 C8.41279706,12.8501783 7.81569903,13.2618616 7.11803711,13.5384123 C6.4203752,13.814963 5.64414775,13.9532383 4.78935477,13.9532383 L0,13.9532383 L0,0.791940553 Z M4.78935477,11.7471182 C5.71957066,11.7471182 6.45808665,11.4737102 7.00490275,10.9268941 C7.55171884,10.380078 7.82512689,9.54099809 7.82512689,8.40965444 L7.82512689,6.33552442 C7.82512689,5.20418078 7.55171884,4.3651009 7.00490275,3.81828481 C6.45808665,3.27146871 5.71957066,2.99806066 4.78935477,2.99806066 L2.48895602,2.99806066 L2.48895602,11.7471182 L4.78935477,11.7471182 Z" id="Shape"></path>
                    <path d="M16.8193089,14.179507 C16.0902208,14.179507 15.4396982,14.0569448 14.8677411,13.8118204 C14.295784,13.5666959 13.8118204,13.2210076 13.4158501,12.7747553 C13.0198798,12.3285031 12.7150455,11.7879723 12.5013473,11.1531628 C12.2876491,10.5183533 12.1807999,9.80497827 12.1807999,9.01303772 C12.1807999,8.23366765 12.2845064,7.52972049 12.4919194,6.90119625 C12.6993324,6.272672 12.9978815,5.73528377 13.3875665,5.28903155 C13.7772515,4.84277933 14.25493,4.497091 14.8206018,4.25196654 C15.3862736,4.00684208 16.0273683,3.88427985 16.743886,3.88427985 C17.5106856,3.88427985 18.1769213,4.01626995 18.7425931,4.28025013 C19.3082649,4.54423031 19.7733729,4.90248914 20.1379169,5.3550266 C20.502461,5.80756405 20.775869,6.3323818 20.9581411,6.92947984 C21.1404131,7.52657787 21.2315491,8.16452998 21.2315491,8.84333617 L21.2315491,9.63527673 L14.6886117,9.63527673 L14.6886117,9.88040118 C14.6886117,10.5969188 14.8897394,11.1720185 15.291995,11.6057002 C15.6942505,12.039382 16.2913485,12.2562228 17.0832891,12.2562228 C17.6866723,12.2562228 18.1800639,12.130518 18.5634637,11.8791083 C18.9468635,11.6276986 19.2894092,11.3071512 19.5911008,10.9174662 L20.892146,12.3693572 C20.4898905,12.935029 19.9399318,13.3781386 19.2422699,13.698686 C18.5446079,14.0192334 17.7369543,14.179507 16.8193089,14.179507 Z M16.7815974,5.69442969 C16.1405027,5.69442969 15.6313981,5.90812793 15.2542835,6.33552442 C14.877169,6.76292091 14.6886117,7.31602225 14.6886117,7.99482844 L14.6886117,8.14567426 L18.7237374,8.14567426 L18.7237374,7.97597271 C18.7237374,7.29716652 18.5571784,6.74720781 18.2240606,6.32609656 C17.8909427,5.90498531 17.4101217,5.69442969 16.7815974,5.69442969 Z" id="Shape"></path>
                    <path d="M27.3408048,14.179507 C26.6117167,14.179507 25.9611941,14.0569448 25.389237,13.8118204 C24.8172799,13.5666959 24.3333163,13.2210076 23.937346,12.7747553 C23.5413757,12.3285031 23.2365415,11.7879723 23.0228432,11.1531628 C22.809145,10.5183533 22.7022958,9.80497827 22.7022958,9.01303772 C22.7022958,8.23366765 22.8060023,7.52972049 23.0134154,6.90119625 C23.2208284,6.272672 23.5193774,5.73528377 23.9090624,5.28903155 C24.2987474,4.84277933 24.7764259,4.497091 25.3420977,4.25196654 C25.9077695,4.00684208 26.5488642,3.88427985 27.2653819,3.88427985 C28.0321815,3.88427985 28.6984172,4.01626995 29.264089,4.28025013 C29.8297608,4.54423031 30.2948688,4.90248914 30.6594128,5.3550266 C31.0239569,5.80756405 31.2973649,6.3323818 31.479637,6.92947984 C31.661909,7.52657787 31.753045,8.16452998 31.753045,8.84333617 L31.753045,9.63527673 L25.2101076,9.63527673 L25.2101076,9.88040118 C25.2101076,10.5969188 25.4112354,11.1720185 25.8134909,11.6057002 C26.2157464,12.039382 26.8128444,12.2562228 27.604785,12.2562228 C28.2081683,12.2562228 28.7015598,12.130518 29.0849596,11.8791083 C29.4683594,11.6276986 29.8109051,11.3071512 30.1125967,10.9174662 L31.4136419,12.3693572 C31.0113864,12.935029 30.4614277,13.3781386 29.7637658,13.698686 C29.0661039,14.0192334 28.2584502,14.179507 27.3408048,14.179507 Z M27.3030933,5.69442969 C26.6619986,5.69442969 26.152894,5.90812793 25.7757794,6.33552442 C25.3986649,6.76292091 25.2101076,7.31602225 25.2101076,7.99482844 L25.2101076,8.14567426 L29.2452333,8.14567426 L29.2452333,7.97597271 C29.2452333,7.29716652 29.0786743,6.74720781 28.7455565,6.32609656 C28.4124386,5.90498531 27.9316176,5.69442969 27.3030933,5.69442969 Z" id="Shape"></path>
                    <path d="M33.8837422,4.11054858 L36.2972753,4.11054858 L36.2972753,5.73214114 L36.3726982,5.73214114 C36.548685,5.16646932 36.8818029,4.71707448 37.3720518,4.38395663 C37.8623007,4.05083878 38.4342578,3.88427985 39.087923,3.88427985 C40.3449715,3.88427985 41.303471,4.32738945 41.9634214,5.21360864 C42.6233719,6.09982783 42.9533471,7.36630419 42.9533471,9.01303772 C42.9533471,10.6723417 42.6233719,11.948246 41.9634214,12.8407504 C41.303471,13.7332548 40.3449715,14.179507 39.087923,14.179507 C38.4342578,14.179507 37.8654433,14.0098055 37.3814797,13.6704024 C36.897516,13.3309993 36.5612555,12.8784618 36.3726982,12.31279 L36.2972753,12.31279 L36.2972753,17.7243838 L33.8837422,17.7243838 L33.8837422,4.11054858 Z M38.3148382,12.1807999 C38.9433624,12.1807999 39.4524671,11.9733869 39.8421521,11.5585609 C40.2318371,11.1437349 40.4266796,10.5843483 40.4266796,9.88040118 L40.4266796,8.18338571 C40.4266796,7.47943855 40.2318371,6.91690935 39.8421521,6.49579811 C39.4524671,6.07468686 38.9433624,5.86413124 38.3148382,5.86413124 C37.7365959,5.86413124 37.2557748,6.00869181 36.872375,6.29781297 C36.4889752,6.58693412 36.2972753,6.97033391 36.2972753,7.44801234 L36.2972753,10.5780631 C36.2972753,11.093453 36.4889752,11.4894233 36.872375,11.7659739 C37.2557748,12.0425246 37.7365959,12.1807999 38.3148382,12.1807999 Z" id="Shape"></path>
                    <path d="M49.4397174,14.179507 C48.3083737,14.179507 47.3498742,13.9783793 46.5642189,13.5761238 C45.7785636,13.1738682 45.1029001,12.6459079 44.5372282,11.9922427 L46.215388,10.3706501 C46.6679254,10.8986105 47.1738875,11.300866 47.733274,11.5774167 C48.2926606,11.8539673 48.911757,11.9922427 49.5905632,11.9922427 C50.3573628,11.9922427 50.9356051,11.8256837 51.3252901,11.4925659 C51.7149751,11.159448 51.9098177,10.7100532 51.9098177,10.1443814 C51.9098177,9.70441439 51.7841128,9.34615557 51.5327031,9.0696049 C51.2812934,8.79305423 50.8099002,8.59192647 50.1185236,8.46622162 L48.8740455,8.27766435 C46.2468142,7.86283835 44.9331985,6.58693412 44.9331985,4.44995168 C44.9331985,3.85913888 45.0431903,3.32489327 45.2631737,2.84721484 C45.4831572,2.36953642 45.800562,1.96099565 46.215388,1.62159256 C46.630214,1.28218947 47.1298908,1.0213519 47.7144183,0.839079871 C48.2989459,0.656807839 48.9620389,0.565671823 49.7036976,0.565671823 C50.6967659,0.565671823 51.5641293,0.729088128 52.3057879,1.05592074 C53.0474466,1.38275335 53.682256,1.86671702 54.2102164,2.50781175 L52.5132009,4.11054858 C52.1863683,3.70829306 51.7903981,3.38146046 51.3252901,3.13005076 C50.8601822,2.87864106 50.2756546,2.75293621 49.5717075,2.75293621 C48.8551898,2.75293621 48.3178016,2.88806892 47.9595428,3.15833435 C47.6012839,3.42859977 47.4221545,3.80885694 47.4221545,4.29910586 C47.4221545,4.80192526 47.5667151,5.17275456 47.8558363,5.41159378 C48.1449574,5.65043299 48.6100654,5.82641978 49.2511601,5.93955415 L50.4767824,6.16582288 C51.8092538,6.40466209 52.7928942,6.82891596 53.4277037,7.43858448 C54.0625132,8.048253 54.379918,8.89990336 54.379918,9.99353555 C54.379918,10.6220598 54.2699262,11.1908742 54.0499427,11.6999789 C53.8299592,12.2090835 53.5094119,12.6490505 53.0883006,13.0198798 C52.6671894,13.3907091 52.1517995,13.6766876 51.542131,13.8778154 C50.9324625,14.0789432 50.2316579,14.179507 49.4397174,14.179507 Z" id="Path"></path>
                    <path d="M60.6965867,14.179507 C59.9674985,14.179507 59.3169759,14.0569448 58.7450189,13.8118204 C58.1730618,13.5666959 57.6890981,13.2210076 57.2931279,12.7747553 C56.8971576,12.3285031 56.5923233,11.7879723 56.3786251,11.1531628 C56.1649268,10.5183533 56.0580777,9.80497827 56.0580777,9.01303772 C56.0580777,8.23366765 56.1617842,7.52972049 56.3691972,6.90119625 C56.5766102,6.272672 56.8751592,5.73528377 57.2648443,5.28903155 C57.6545293,4.84277933 58.1322077,4.497091 58.6978795,4.25196654 C59.2635514,4.00684208 59.9046461,3.88427985 60.6211637,3.88427985 C61.3879633,3.88427985 62.054199,4.01626995 62.6198709,4.28025013 C63.1855427,4.54423031 63.6506506,4.90248914 64.0151947,5.3550266 C64.3797387,5.80756405 64.6531468,6.3323818 64.8354188,6.92947984 C65.0176909,7.52657787 65.1088269,8.16452998 65.1088269,8.84333617 L65.1088269,9.63527673 L58.5658895,9.63527673 L58.5658895,9.88040118 C58.5658895,10.5969188 58.7670172,11.1720185 59.1692727,11.6057002 C59.5715283,12.039382 60.1686263,12.2562228 60.9605668,12.2562228 C61.5639501,12.2562228 62.0573417,12.130518 62.4407414,11.8791083 C62.8241412,11.6276986 63.166687,11.3071512 63.4683786,10.9174662 L64.7694238,12.3693572 C64.3671683,12.935029 63.8172095,13.3781386 63.1195476,13.698686 C62.4218857,14.0192334 61.6142321,14.179507 60.6965867,14.179507 Z M60.6588752,5.69442969 C60.0177805,5.69442969 59.5086758,5.90812793 59.1315613,6.33552442 C58.7544467,6.76292091 58.5658895,7.31602225 58.5658895,7.99482844 L58.5658895,8.14567426 L62.6010151,8.14567426 L62.6010151,7.97597271 C62.6010151,7.29716652 62.4344562,6.74720781 62.1013383,6.32609656 C61.7682205,5.90498531 61.2873994,5.69442969 60.6588752,5.69442969 Z" id="Shape"></path>
                    <path d="M71.2180826,14.179507 C70.4889944,14.179507 69.8384718,14.0569448 69.2665148,13.8118204 C68.6945577,13.5666959 68.210594,13.2210076 67.8146238,12.7747553 C67.4186535,12.3285031 67.1138192,11.7879723 66.900121,11.1531628 C66.6864227,10.5183533 66.5795736,9.80497827 66.5795736,9.01303772 C66.5795736,8.23366765 66.6832801,7.52972049 66.8906931,6.90119625 C67.0981061,6.272672 67.3966551,5.73528377 67.7863402,5.28903155 C68.1760252,4.84277933 68.6537036,4.497091 69.2193755,4.25196654 C69.7850473,4.00684208 70.426142,3.88427985 71.1426597,3.88427985 C71.9094592,3.88427985 72.5756949,4.01626995 73.1413668,4.28025013 C73.7070386,4.54423031 74.1721465,4.90248914 74.5366906,5.3550266 C74.9012347,5.80756405 75.1746427,6.3323818 75.3569147,6.92947984 C75.5391868,7.52657787 75.6303228,8.16452998 75.6303228,8.84333617 L75.6303228,9.63527673 L69.0873854,9.63527673 L69.0873854,9.88040118 C69.0873854,10.5969188 69.2885131,11.1720185 69.6907686,11.6057002 C70.0930242,12.039382 70.6901222,12.2562228 71.4820628,12.2562228 C72.085446,12.2562228 72.5788376,12.130518 72.9622374,11.8791083 C73.3456372,11.6276986 73.6881829,11.3071512 73.9898745,10.9174662 L75.2909197,12.3693572 C74.8886642,12.935029 74.3387055,13.3781386 73.6410435,13.698686 C72.9433816,14.0192334 72.135728,14.179507 71.2180826,14.179507 Z M71.1803711,5.69442969 C70.5392764,5.69442969 70.0301717,5.90812793 69.6530572,6.33552442 C69.2759426,6.76292091 69.0873854,7.31602225 69.0873854,7.99482844 L69.0873854,8.14567426 L73.122511,8.14567426 L73.122511,7.97597271 C73.122511,7.29716652 72.9559521,6.74720781 72.6228343,6.32609656 C72.2897164,5.90498531 71.8088954,5.69442969 71.1803711,5.69442969 Z" id="Shape"></path>
                    <polygon id="Path" points="77.76102 0 80.1745531 0 80.1745531 8.40965444 80.2688317 8.40965444 81.5698769 6.63721606 83.7759971 4.11054858 86.5100775 4.11054858 83.1160466 7.91940553 86.8683364 13.9532383 84.0022658 13.9532383 81.4755983 9.54099809 80.1745531 10.9551776 80.1745531 13.9532383 77.76102 13.9532383"></polygon>
                    <path d="M101.104411,13.9532383 L100.04849,10.5969188 L95.3722694,10.5969188 L94.3352044,13.9532383 L91.8085369,13.9532383 L96.2207772,0.791940553 L99.3131165,0.791940553 L103.687645,13.9532383 L101.104411,13.9532383 Z M97.7480911,3.05462785 L97.6538125,3.05462785 L95.9756527,8.46622162 L99.4451066,8.46622162 L97.7480911,3.05462785 Z" id="Shape"></path>
                    <polygon id="Path" points="105.082969 13.9532383 105.082969 11.9545312 106.817696 11.9545312 106.817696 2.79064766 105.082969 2.79064766 105.082969 0.791940553 111.060235 0.791940553 111.060235 2.79064766 109.306652 2.79064766 109.306652 11.9545312 111.060235 11.9545312 111.060235 13.9532383"></polygon>
                </g>
            </g>
        </g>
    </g>
</svg>